<svg version="1.1" viewBox="0.0 0.0 600.0 371.0" fill="none" stroke="none" stroke-linecap="square" stroke-miterlimit="10" width="600" height="371" xmlns:xlink="http://www.w3.org/1999/xlink" xmlns="http://www.w3.org/2000/svg"><path fill="#1e1e2e" d="M0 0L600.0 0L600.0 371.0L0 371.0L0 0Z" fill-rule="nonzero"/><path stroke="#ececed" stroke-width="1.0" stroke-linecap="butt" d="M45.5 25.5L45.5 332.5" fill-rule="nonzero"/><path stroke="#51515e" stroke-width="1.0" stroke-linecap="butt" d="M224.5 25.5L224.5 332.5" fill-rule="nonzero"/><path stroke="#51515e" stroke-width="1.0" stroke-linecap="butt" d="M402.5 25.5L402.5 332.5" fill-rule="nonzero"/><path stroke="#51515e" stroke-width="1.0" stroke-linecap="butt" d="M581.5 25.5L581.5 332.5" fill-rule="nonzero"/><path stroke="#ececed" stroke-width="1.0" stroke-linecap="butt" d="M45.5 332.5L581.5 332.5" fill-rule="nonzero"/><path stroke="#51515e" stroke-width="1.0" stroke-linecap="butt" d="M45.5 230.5L581.5 230.5" fill-rule="nonzero"/><path stroke="#51515e" stroke-width="1.0" stroke-linecap="butt" d="M45.5 127.5L581.5 127.5" fill-rule="nonzero"/><path stroke="#51515e" stroke-width="1.0" stroke-linecap="butt" d="M45.5 25.5L581.5 25.5" fill-rule="nonzero"/><path stroke="#000000" stroke-width="1.0" stroke-linecap="butt" stroke-opacity="0.0" d="M45.5 298.5L581.5 298.5" fill-rule="nonzero"/><path stroke="#000000" stroke-width="1.0" stroke-linecap="butt" stroke-opacity="0.0" d="M45.5 264.5L581.5 264.5" fill-rule="nonzero"/><path stroke="#000000" stroke-width="1.0" stroke-linecap="butt" stroke-opacity="0.0" d="M45.5 196.5L581.5 196.5" fill-rule="nonzero"/><path stroke="#000000" stroke-width="1.0" stroke-linecap="butt" stroke-opacity="0.0" d="M45.5 161.5L581.5 161.5" fill-rule="nonzero"/><path stroke="#000000" stroke-width="1.0" stroke-linecap="butt" stroke-opacity="0.0" d="M45.5 93.5L581.5 93.5" fill-rule="nonzero"/><path stroke="#000000" stroke-width="1.0" stroke-linecap="butt" stroke-opacity="0.0" d="M45.5 59.5L581.5 59.5" fill-rule="nonzero"/><path stroke="#6c7086" stroke-width="1.0" stroke-linecap="butt" d="M45.5 25.55L45.5 332.45" fill-rule="nonzero"/><path stroke="#6c7086" stroke-width="1.0" stroke-linecap="butt" d="M224.5 25.55L224.5 332.45" fill-rule="nonzero"/><clipPath id="id_0"><path d="M45.55 25.55L581.45 25.55L581.45 332.45L45.55 332.45L45.55 25.55Z" clip-rule="nonzero"/></clipPath><path stroke="#a6e3a1" stroke-width="2.0" stroke-linecap="butt" clip-path="url(#id_0)" d="M45.55 230.15L134.86667 230.15L224.18333 230.15L581.45 25.55" fill-rule="nonzero"/><path fill="#a6e3a1" clip-path="url(#id_0)" d="M45.55 230.15C45.55 230.15 45.55 230.15 45.55 230.15C45.55 230.15 45.55 230.15 45.55 230.15C45.55 230.15 45.55 230.15 45.55 230.15C45.55 230.15 45.55 230.15 45.55 230.15Z" fill-rule="nonzero"/><path fill="#a6e3a1" clip-path="url(#id_0)" d="M134.86667 230.15C134.86667 230.15 134.86667 230.15 134.86667 230.15C134.86667 230.15 134.86667 230.15 134.86667 230.15C134.86667 230.15 134.86667 230.15 134.86667 230.15C134.86667 230.15 134.86667 230.15 134.86667 230.15Z" fill-rule="nonzero"/><path fill="#a6e3a1" clip-path="url(#id_0)" d="M224.18333 230.15C224.18333 230.15 224.18333 230.15 224.18333 230.15C224.18333 230.15 224.18333 230.15 224.18333 230.15C224.18333 230.15 224.18333 230.15 224.18333 230.15C224.18333 230.15 224.18333 230.15 224.18333 230.15Z" fill-rule="nonzero"/><path fill="#a6e3a1" clip-path="url(#id_0)" d="M581.45 25.55C581.45 25.55 581.45 25.55 581.45 25.55C581.45 25.55 581.45 25.55 581.45 25.55C581.45 25.55 581.45 25.55 581.45 25.55C581.45 25.55 581.45 25.55 581.45 25.55Z" fill-rule="nonzero"/><path stroke="#1e1e2e" stroke-width="3.0" stroke-linejoin="round" stroke-linecap="round" d="M54.284374 289.17188L55.815624 289.17188L55.815624 290.48438L58.753124 290.48438Q59.628124 290.48438 59.784374 290.45312Q59.925 290.40625 60.034374 290.28125Q60.128124 290.14062 60.128124 289.9375Q60.128124 289.67188 59.940624 289.17188L61.425 289.01562Q61.721874 289.67188 61.721874 290.53125Q61.721874 291.04688 61.55 291.46875Q61.3625 291.875 61.096874 292.07812Q60.815624 292.26562 60.346874 292.34375Q60.003124 292.40625 58.9875 292.40625L55.815624 292.40625L55.815624 293.28125L54.284374 293.28125L54.284374 292.40625L52.846874 292.40625L51.721874 290.48438L54.284374 290.48438L54.284374 289.17188ZM51.534374 285.57812L55.20625 285.57812Q54.128124 284.65625 54.128124 283.35938Q54.128124 282.70312 54.378124 282.17188Q54.6125 281.625 55.003124 281.35938Q55.378124 281.09375 55.846874 281.0Q56.315624 280.89062 57.284374 280.89062L61.55 280.89062L61.55 282.8125L57.721874 282.8125Q56.565624 282.8125 56.26875 282.92188Q55.95625 283.03125 55.784374 283.3125Q55.596874 283.57812 55.596874 284.0Q55.596874 284.48438 55.83125 284.85938Q56.065624 285.23438 56.534374 285.40625Q57.003124 285.57812 57.909374 285.57812L61.55 285.57812L61.55 287.5L51.534374 287.5L51.534374 285.57812ZM59.2375 274.29688L59.565624 272.375Q60.6125 272.75 61.175 273.54688Q61.721874 274.34375 61.721874 275.53125Q61.721874 277.42188 60.471874 278.34375Q59.4875 279.0625 57.971874 279.0625Q56.175 279.0625 55.159374 278.125Q54.128124 277.17188 54.128124 275.71875Q54.128124 274.10938 55.20625 273.17188Q56.26875 272.23438 58.471874 272.28125L58.471874 277.09375Q59.33125 277.0625 59.815624 276.625Q60.284374 276.17188 60.284374 275.51562Q60.284374 275.0625 60.034374 274.76562Q59.784374 274.45312 59.2375 274.29688ZM57.3 274.1875Q56.45625 274.20312 56.034374 274.60938Q55.596874 275.01562 55.596874 275.60938Q55.596874 276.23438 56.05 276.65625Q56.51875 277.0625 57.3 277.04688L57.3 274.1875ZM57.815624 265.9375Q56.8625 265.9375 55.971874 265.46875Q55.065624 265.0 54.596874 264.14062Q54.128124 263.26562 54.128124 262.20312Q54.128124 260.54688 55.20625 259.5Q56.26875 258.45312 57.89375 258.45312Q59.55 258.45312 60.64375 259.51562Q61.721874 260.57812 61.721874 262.1875Q61.721874 263.1875 61.26875 264.09375Q60.815624 265.0 59.940624 265.46875Q59.065624 265.9375 57.815624 265.9375ZM57.925 263.96875Q59.003124 263.96875 59.58125 263.45312Q60.14375 262.9375 60.14375 262.1875Q60.14375 261.4375 59.58125 260.9375Q59.003124 260.42188 57.909374 260.42188Q56.846874 260.42188 56.26875 260.9375Q55.690624 261.4375 55.690624 262.1875Q55.690624 262.9375 56.26875 263.45312Q56.846874 263.96875 57.925 263.96875ZM61.55 256.57812L51.534374 256.57812L51.534374 254.65625L55.14375 254.65625Q54.128124 253.76562 54.128124 252.54688Q54.128124 251.21875 55.096874 250.35938Q56.05 249.48438 57.846874 249.48438Q59.70625 249.48438 60.721874 250.375Q61.721874 251.26562 61.721874 252.51562Q61.721874 253.14062 61.409374 253.75Q61.096874 254.35938 60.4875 254.79688L61.55 254.79688L61.55 256.57812ZM57.76875 254.67188Q58.89375 254.67188 59.425 254.3125Q60.190624 253.8125 60.190624 252.98438Q60.190624 252.35938 59.659374 251.90625Q59.1125 251.45312 57.940624 251.45312Q56.690624 251.45312 56.14375 251.90625Q55.596874 252.35938 55.596874 253.0625Q55.596874 253.75 56.14375 254.21875Q56.675 254.67188 57.76875 254.67188ZM53.3 247.53125L51.534374 247.53125L51.534374 245.60938L53.3 245.60938L53.3 247.53125ZM54.284374 245.60938L61.33125 245.60938Q62.70625 245.60938 63.26875 245.79688Q63.846874 245.98438 64.175 246.5Q64.50313 247.01562 64.50313 247.8125Q64.50313 248.09375 64.44063 248.4375Q64.39375 248.76562 64.28438 249.14062L62.64375 248.8125Q62.675 248.67188 62.690624 248.54688Q62.70625 248.4375 62.70625 248.32812Q62.70625 248.03125 62.58125 247.84375Q62.45625 247.65625 62.26875 247.59375Q62.096874 247.53125 61.221874 247.53125L54.284374 247.53125L54.284374 245.60938ZM59.2375 239.29688L59.565624 237.375Q60.6125 237.75 61.175 238.54688Q61.721874 239.34375 61.721874 240.53125Q61.721874 242.42188 60.471874 243.34375Q59.4875 244.0625 57.971874 244.0625Q56.175 244.0625 55.159374 243.125Q54.128124 242.17188 54.128124 240.71875Q54.128124 239.10938 55.20625 238.17188Q56.26875 237.23438 58.471874 237.28125L58.471874 242.09375Q59.33125 242.0625 59.815624 241.625Q60.284374 241.17188 60.284374 240.51562Q60.284374 240.0625 60.034374 239.76562Q59.784374 239.45312 59.2375 239.29688ZM57.3 239.1875Q56.45625 239.20312 56.034374 239.60938Q55.596874 240.01562 55.596874 240.60938Q55.596874 241.23438 56.05 241.65625Q56.51875 242.0625 57.3 242.04688L57.3 239.1875ZM56.440624 228.17188L56.784374 230.0625Q56.20625 230.15625 55.925 230.5Q55.64375 230.82812 55.64375 231.375Q55.64375 232.09375 56.14375 232.51562Q56.628124 232.9375 57.784374 232.9375Q59.08125 232.9375 59.6125 232.51562Q60.14375 232.07812 60.14375 231.34375Q60.14375 230.79688 59.83125 230.45312Q59.51875 230.09375 58.76875 229.95312L59.08125 228.0625Q60.39375 228.35938 61.065624 229.20312Q61.721874 230.03125 61.721874 231.4375Q61.721874 233.03125 60.721874 233.98438Q59.70625 234.92188 57.925 234.92188Q56.128124 234.92188 55.128124 233.96875Q54.128124 233.01562 54.128124 231.39062Q54.128124 230.07812 54.70625 229.29688Q55.26875 228.5 56.440624 228.17188ZM54.284374 223.17188L55.815624 223.17188L55.815624 224.48438L58.753124 224.48438Q59.628124 224.48438 59.784374 224.45312Q59.925 224.40625 60.034374 224.28125Q60.128124 224.14062 60.128124 223.9375Q60.128124 223.67188 59.940624 223.17188L61.425 223.01562Q61.721874 223.67188 61.721874 224.53125Q61.721874 225.04688 61.55 225.46875Q61.3625 225.875 61.096874 226.07812Q60.815624 226.26562 60.346874 226.34375Q60.003124 226.40625 58.9875 226.40625L55.815624 226.40625L55.815624 227.28125L54.284374 227.28125L54.284374 226.40625L52.846874 226.40625L51.721874 224.48438L54.284374 224.48438L54.284374 223.17188ZM53.3 217.5L51.534374 217.5L51.534374 215.57812L53.3 215.57812L53.3 217.5ZM61.55 217.5L54.284374 217.5L54.284374 215.57812L61.55 215.57812L61.55 217.5ZM59.471874 214.17188L59.190624 212.25Q59.7375 212.125 60.034374 211.75Q60.33125 211.375 60.33125 210.6875Q60.33125 209.95312 60.05 209.57812Q59.8625 209.3125 59.534374 209.3125Q59.315624 209.3125 59.175 209.45312Q59.034374 209.59375 58.925 210.09375Q58.409374 212.42188 57.9875 213.04688Q57.39375 213.90625 56.346874 213.90625Q55.409374 213.90625 54.76875 213.17188Q54.128124 212.42188 54.128124 210.84375Q54.128124 209.35938 54.6125 208.64062Q55.096874 207.90625 56.05 207.64062L56.378124 209.45312Q55.95625 209.5625 55.7375 209.89062Q55.503124 210.21875 55.503124 210.8125Q55.503124 211.57812 55.721874 211.90625Q55.8625 212.125 56.1125 212.125Q56.315624 212.125 56.45625 211.92188Q56.64375 211.67188 57.003124 210.14062Q57.346874 208.59375 57.846874 207.98438Q58.3625 207.39062 59.284374 207.39062Q60.284374 207.39062 61.003124 208.23438Q61.721874 209.0625 61.721874 210.6875Q61.721874 212.17188 61.1125 213.04688Q60.503124 213.90625 59.471874 214.17188ZM56.503124 200.0625L56.190624 201.79688Q55.14375 201.51562 54.64375 200.79688Q54.128124 200.07812 54.128124 198.65625Q54.128124 197.375 54.440624 196.75Q54.7375 196.10938 55.20625 195.85938Q55.675 195.60938 56.925 195.60938L59.159374 195.625Q60.128124 195.625 60.58125 195.53125Q61.034374 195.4375 61.55 195.1875L61.55 197.07812Q61.3625 197.15625 60.9875 197.26562Q60.815624 197.3125 60.753124 197.34375Q61.2375 197.82812 61.4875 198.39062Q61.721874 198.95312 61.721874 199.59375Q61.721874 200.70312 61.1125 201.35938Q60.503124 202.0 59.565624 202.0Q58.95625 202.0 58.471874 201.70312Q57.9875 201.40625 57.7375 200.89062Q57.471874 200.35938 57.284374 199.35938Q57.034374 198.01562 56.815624 197.48438L56.628124 197.48438Q56.065624 197.48438 55.83125 197.76562Q55.596874 198.03125 55.596874 198.79688Q55.596874 199.3125 55.8 199.59375Q56.003124 199.875 56.503124 200.0625ZM58.065624 197.48438Q58.190624 197.85938 58.3625 198.65625Q58.534374 199.45312 58.690624 199.70312Q58.95625 200.07812 59.3625 200.07812Q59.76875 200.07812 60.065624 199.78125Q60.3625 199.48438 60.3625 199.01562Q60.3625 198.5 60.01875 198.01562Q59.753124 197.67188 59.378124 197.5625Q59.14375 197.48438 58.440624 197.48438L58.065624 197.48438ZM54.284374 190.17188L55.815624 190.17188L55.815624 191.48438L58.753124 191.48438Q59.628124 191.48438 59.784374 191.45312Q59.925 191.40625 60.034374 191.28125Q60.128124 191.14062 60.128124 190.9375Q60.128124 190.67188 59.940624 190.17188L61.425 190.01562Q61.721874 190.67188 61.721874 191.53125Q61.721874 192.04688 61.55 192.46875Q61.3625 192.875 61.096874 193.07812Q60.815624 193.26562 60.346874 193.34375Q60.003124 193.40625 58.9875 193.40625L55.815624 193.40625L55.815624 194.28125L54.284374 194.28125L54.284374 193.40625L52.846874 193.40625L51.721874 191.48438L54.284374 191.48438L54.284374 190.17188ZM56.503124 183.0625L56.190624 184.79688Q55.14375 184.51562 54.64375 183.79688Q54.128124 183.07812 54.128124 181.65625Q54.128124 180.375 54.440624 179.75Q54.7375 179.10938 55.20625 178.85938Q55.675 178.60938 56.925 178.60938L59.159374 178.625Q60.128124 178.625 60.58125 178.53125Q61.034374 178.4375 61.55 178.1875L61.55 180.07812Q61.3625 180.15625 60.9875 180.26562Q60.815624 180.3125 60.753124 180.34375Q61.2375 180.82812 61.4875 181.39062Q61.721874 181.95312 61.721874 182.59375Q61.721874 183.70312 61.1125 184.35938Q60.503124 185.0 59.565624 185.0Q58.95625 185.0 58.471874 184.70312Q57.9875 184.40625 57.7375 183.89062Q57.471874 183.35938 57.284374 182.35938Q57.034374 181.01562 56.815624 180.48438L56.628124 180.48438Q56.065624 180.48438 55.83125 180.76562Q55.596874 181.03125 55.596874 181.79688Q55.596874 182.3125 55.8 182.59375Q56.003124 182.875 56.503124 183.0625ZM58.065624 180.48438Q58.190624 180.85938 58.3625 181.65625Q58.534374 182.45312 58.690624 182.70312Q58.95625 183.07812 59.3625 183.07812Q59.76875 183.07812 60.065624 182.78125Q60.3625 182.48438 60.3625 182.01562Q60.3625 181.5 60.01875 181.01562Q59.753124 180.67188 59.378124 180.5625Q59.14375 180.48438 58.440624 180.48438L58.065624 180.48438ZM56.440624 166.17188L56.784374 168.0625Q56.20625 168.15625 55.925 168.5Q55.64375 168.82812 55.64375 169.375Q55.64375 170.09375 56.14375 170.51562Q56.628124 170.9375 57.784374 170.9375Q59.08125 170.9375 59.6125 170.51562Q60.14375 170.07812 60.14375 169.34375Q60.14375 168.79688 59.83125 168.45312Q59.51875 168.09375 58.76875 167.95312L59.08125 166.0625Q60.39375 166.35938 61.065624 167.20312Q61.721874 168.03125 61.721874 169.4375Q61.721874 171.03125 60.721874 171.98438Q59.70625 172.92188 57.925 172.92188Q56.128124 172.92188 55.128124 171.96875Q54.128124 171.01562 54.128124 169.39062Q54.128124 168.07812 54.70625 167.29688Q55.26875 166.5 56.440624 166.17188ZM57.815624 164.9375Q56.8625 164.9375 55.971874 164.46875Q55.065624 164.0 54.596874 163.14062Q54.128124 162.26562 54.128124 161.20312Q54.128124 159.54688 55.20625 158.5Q56.26875 157.45312 57.89375 157.45312Q59.55 157.45312 60.64375 158.51562Q61.721874 159.57812 61.721874 161.1875Q61.721874 162.1875 61.26875 163.09375Q60.815624 164.0 59.940624 164.46875Q59.065624 164.9375 57.815624 164.9375ZM57.925 162.96875Q59.003124 162.96875 59.58125 162.45312Q60.14375 161.9375 60.14375 161.1875Q60.14375 160.4375 59.58125 159.9375Q59.003124 159.42188 57.909374 159.42188Q56.846874 159.42188 56.26875 159.9375Q55.690624 160.4375 55.690624 161.1875Q55.690624 161.9375 56.26875 162.45312Q56.846874 162.96875 57.925 162.96875ZM61.55 148.89062L61.55 150.8125L57.846874 150.8125Q56.675 150.8125 56.33125 150.9375Q55.971874 151.0625 55.784374 151.34375Q55.596874 151.60938 55.596874 152.0Q55.596874 152.5 55.878124 152.90625Q56.14375 153.29688 56.596874 153.45312Q57.05 153.59375 58.26875 153.59375L61.55 153.59375L61.55 155.51562L54.284374 155.51562L54.284374 153.71875L55.3625 153.71875Q54.128124 152.78125 54.128124 151.32812Q54.128124 150.70312 54.3625 150.17188Q54.58125 149.64062 54.940624 149.375Q55.3 149.10938 55.753124 149.0Q56.190624 148.89062 57.034374 148.89062L61.55 148.89062ZM59.471874 147.17188L59.190624 145.25Q59.7375 145.125 60.034374 144.75Q60.33125 144.375 60.33125 143.6875Q60.33125 142.95312 60.05 142.57812Q59.8625 142.3125 59.534374 142.3125Q59.315624 142.3125 59.175 142.45312Q59.034374 142.59375 58.925 143.09375Q58.409374 145.42188 57.9875 146.04688Q57.39375 146.90625 56.346874 146.90625Q55.409374 146.90625 54.76875 146.17188Q54.128124 145.42188 54.128124 143.84375Q54.128124 142.35938 54.6125 141.64062Q55.096874 140.90625 56.05 140.64062L56.378124 142.45312Q55.95625 142.5625 55.7375 142.89062Q55.503124 143.21875 55.503124 143.8125Q55.503124 144.57812 55.721874 144.90625Q55.8625 145.125 56.1125 145.125Q56.315624 145.125 56.45625 144.92188Q56.64375 144.67188 57.003124 143.14062Q57.346874 141.59375 57.846874 140.98438Q58.3625 140.39062 59.284374 140.39062Q60.284374 140.39062 61.003124 141.23438Q61.721874 142.0625 61.721874 143.6875Q61.721874 145.17188 61.1125 146.04688Q60.503124 146.90625 59.471874 147.17188ZM54.284374 135.17188L55.815624 135.17188L55.815624 136.48438L58.753124 136.48438Q59.628124 136.48438 59.784374 136.45312Q59.925 136.40625 60.034374 136.28125Q60.128124 136.14062 60.128124 135.9375Q60.128124 135.67188 59.940624 135.17188L61.425 135.01562Q61.721874 135.67188 61.721874 136.53125Q61.721874 137.04688 61.55 137.46875Q61.3625 137.875 61.096874 138.07812Q60.815624 138.26562 60.346874 138.34375Q60.003124 138.40625 58.9875 138.40625L55.815624 138.40625L55.815624 139.28125L54.284374 139.28125L54.284374 138.40625L52.846874 138.40625L51.721874 136.48438L54.284374 136.48438L54.284374 135.17188ZM56.503124 132.0625L56.190624 133.79688Q55.14375 133.51562 54.64375 132.79688Q54.128124 132.07812 54.128124 130.65625Q54.128124 129.375 54.440624 128.75Q54.7375 128.10938 55.20625 127.859375Q55.675 127.609375 56.925 127.609375L59.159374 127.625Q60.128124 127.625 60.58125 127.53125Q61.034374 127.4375 61.55 127.1875L61.55 129.07812Q61.3625 129.15625 60.9875 129.26562Q60.815624 129.3125 60.753124 129.34375Q61.2375 129.82812 61.4875 130.39062Q61.721874 130.95312 61.721874 131.59375Q61.721874 132.70312 61.1125 133.35938Q60.503124 134.0 59.565624 134.0Q58.95625 134.0 58.471874 133.70312Q57.9875 133.40625 57.7375 132.89062Q57.471874 132.35938 57.284374 131.35938Q57.034374 130.01562 56.815624 129.48438L56.628124 129.48438Q56.065624 129.48438 55.83125 129.76562Q55.596874 130.03125 55.596874 130.79688Q55.596874 131.3125 55.8 131.59375Q56.003124 131.875 56.503124 132.0625ZM58.065624 129.48438Q58.190624 129.85938 58.3625 130.65625Q58.534374 131.45312 58.690624 131.70312Q58.95625 132.07812 59.3625 132.07812Q59.76875 132.07812 60.065624 131.78125Q60.3625 131.48438 60.3625 131.01562Q60.3625 130.5 60.01875 130.01562Q59.753124 129.67188 59.378124 129.5625Q59.14375 129.48438 58.440624 129.48438L58.065624 129.48438ZM61.55 118.890625L61.55 120.8125L57.846874 120.8125Q56.675 120.8125 56.33125 120.9375Q55.971874 121.0625 55.784374 121.34375Q55.596874 121.609375 55.596874 122.0Q55.596874 122.5 55.878124 122.90625Q56.14375 123.296875 56.596874 123.453125Q57.05 123.59375 58.26875 123.59375L61.55 123.59375L61.55 125.515625L54.284374 125.515625L54.284374 123.71875L55.3625 123.71875Q54.128124 122.78125 54.128124 121.328125Q54.128124 120.703125 54.3625 120.171875Q54.58125 119.640625 54.940624 119.375Q55.3 119.109375 55.753124 119.0Q56.190624 118.890625 57.034374 118.890625L61.55 118.890625ZM54.284374 113.171875L55.815624 113.171875L55.815624 114.484375L58.753124 114.484375Q59.628124 114.484375 59.784374 114.453125Q59.925 114.40625 60.034374 114.28125Q60.128124 114.140625 60.128124 113.9375Q60.128124 113.671875 59.940624 113.171875L61.425 113.015625Q61.721874 113.671875 61.721874 114.53125Q61.721874 115.046875 61.55 115.46875Q61.3625 115.875 61.096874 116.078125Q60.815624 116.265625 60.346874 116.34375Q60.003124 116.40625 58.9875 116.40625L55.815624 116.40625L55.815624 117.28125L54.284374 117.28125L54.284374 116.40625L52.846874 116.40625L51.721874 114.484375L54.284374 114.484375L54.284374 113.171875ZM59.471874 108.171875L59.190624 106.25Q59.7375 106.125 60.034374 105.75Q60.33125 105.375 60.33125 104.6875Q60.33125 103.953125 60.05 103.578125Q59.8625 103.3125 59.534374 103.3125Q59.315624 103.3125 59.175 103.453125Q59.034374 103.59375 58.925 104.09375Q58.409374 106.421875 57.9875 107.046875Q57.39375 107.90625 56.346874 107.90625Q55.409374 107.90625 54.76875 107.171875Q54.128124 106.421875 54.128124 104.84375Q54.128124 103.359375 54.6125 102.640625Q55.096874 101.90625 56.05 101.640625L56.378124 103.453125Q55.95625 103.5625 55.7375 103.890625Q55.503124 104.21875 55.503124 104.8125Q55.503124 105.578125 55.721874 105.90625Q55.8625 106.125 56.1125 106.125Q56.315624 106.125 56.45625 105.921875Q56.64375 105.671875 57.003124 104.140625Q57.346874 102.59375 57.846874 101.984375Q58.3625 101.390625 59.284374 101.390625Q60.284374 101.390625 61.003124 102.234375Q61.721874 103.0625 61.721874 104.6875Q61.721874 106.171875 61.1125 107.046875Q60.503124 107.90625 59.471874 108.171875ZM54.284374 99.546875L54.284374 97.765625L55.3625 97.765625Q54.815624 97.40625 54.471874 96.8125Q54.128124 96.21875 54.128124 95.5Q54.128124 94.234375 55.128124 93.359375Q56.1125 92.46875 57.878124 92.46875Q59.690624 92.46875 60.70625 93.359375Q61.721874 94.25 61.721874 95.515625Q61.721874 96.109375 61.4875 96.609375Q61.2375 97.09375 60.659374 97.625L64.31563 97.625L64.31563 99.546875L54.284374 99.546875ZM57.8 97.65625Q59.01875 97.65625 59.6125 97.171875Q60.190624 96.671875 60.190624 95.984375Q60.190624 95.3125 59.659374 94.875Q59.1125 94.421875 57.89375 94.421875Q56.753124 94.421875 56.20625 94.890625Q55.64375 95.34375 55.64375 96.015625Q55.64375 96.71875 56.190624 97.1875Q56.7375 97.65625 57.8 97.65625ZM59.2375 86.296875L59.565624 84.375Q60.6125 84.75 61.175 85.546875Q61.721874 86.34375 61.721874 87.53125Q61.721874 89.421875 60.471874 90.34375Q59.4875 91.0625 57.971874 91.0625Q56.175 91.0625 55.159374 90.125Q54.128124 89.171875 54.128124 87.71875Q54.128124 86.109375 55.20625 85.171875Q56.26875 84.234375 58.471874 84.28125L58.471874 89.09375Q59.33125 89.0625 59.815624 88.625Q60.284374 88.171875 60.284374 87.515625Q60.284374 87.0625 60.034374 86.765625Q59.784374 86.453125 59.2375 86.296875ZM57.3 86.1875Q56.45625 86.203125 56.034374 86.609375Q55.596874 87.015625 55.596874 87.609375Q55.596874 88.234375 56.05 88.65625Q56.51875 89.0625 57.3 89.046875L57.3 86.1875ZM59.2375 77.296875L59.565624 75.375Q60.6125 75.75 61.175 76.546875Q61.721874 77.34375 61.721874 78.53125Q61.721874 80.421875 60.471874 81.34375Q59.4875 82.0625 57.971874 82.0625Q56.175 82.0625 55.159374 81.125Q54.128124 80.171875 54.128124 78.71875Q54.128124 77.109375 55.20625 76.171875Q56.26875 75.234375 58.471874 75.28125L58.471874 80.09375Q59.33125 80.0625 59.815624 79.625Q60.284374 79.171875 60.284374 78.515625Q60.284374 78.0625 60.034374 77.765625Q59.784374 77.453125 59.2375 77.296875ZM57.3 77.1875Q56.45625 77.203125 56.034374 77.609375Q55.596874 78.015625 55.596874 78.609375Q55.596874 79.234375 56.05 79.65625Q56.51875 80.0625 57.3 80.046875L57.3 77.1875ZM61.55 65.84375L61.55 67.625L60.4875 67.625Q61.1125 68.0625 61.425 68.671875Q61.721874 69.28125 61.721874 69.890625Q61.721874 71.140625 60.70625 72.03125Q59.690624 72.921875 57.89375 72.921875Q56.05 72.921875 55.096874 72.0625Q54.128124 71.1875 54.128124 69.859375Q54.128124 68.640625 55.14375 67.75L51.534374 67.75L51.534374 65.84375L61.55 65.84375ZM57.76875 70.96875Q58.925 70.96875 59.440624 70.640625Q60.190624 70.171875 60.190624 69.34375Q60.190624 68.6875 59.628124 68.21875Q59.065624 67.75 57.940624 67.75Q56.690624 67.75 56.14375 68.203125Q55.596874 68.65625 55.596874 69.359375Q55.596874 70.046875 56.14375 70.515625Q56.675 70.96875 57.76875 70.96875Z" fill-rule="nonzero"/><path fill="#cdd6f4" d="M54.284374 289.17188L55.815624 289.17188L55.815624 290.48438L58.753124 290.48438Q59.628124 290.48438 59.784374 290.45312Q59.925 290.40625 60.034374 290.28125Q60.128124 290.14062 60.128124 289.9375Q60.128124 289.67188 59.940624 289.17188L61.425 289.01562Q61.721874 289.67188 61.721874 290.53125Q61.721874 291.04688 61.55 291.46875Q61.3625 291.875 61.096874 292.07812Q60.815624 292.26562 60.346874 292.34375Q60.003124 292.40625 58.9875 292.40625L55.815624 292.40625L55.815624 293.28125L54.284374 293.28125L54.284374 292.40625L52.846874 292.40625L51.721874 290.48438L54.284374 290.48438L54.284374 289.17188ZM51.534374 285.57812L55.20625 285.57812Q54.128124 284.65625 54.128124 283.35938Q54.128124 282.70312 54.378124 282.17188Q54.6125 281.625 55.003124 281.35938Q55.378124 281.09375 55.846874 281.0Q56.315624 280.89062 57.284374 280.89062L61.55 280.89062L61.55 282.8125L57.721874 282.8125Q56.565624 282.8125 56.26875 282.92188Q55.95625 283.03125 55.784374 283.3125Q55.596874 283.57812 55.596874 284.0Q55.596874 284.48438 55.83125 284.85938Q56.065624 285.23438 56.534374 285.40625Q57.003124 285.57812 57.909374 285.57812L61.55 285.57812L61.55 287.5L51.534374 287.5L51.534374 285.57812ZM59.2375 274.29688L59.565624 272.375Q60.6125 272.75 61.175 273.54688Q61.721874 274.34375 61.721874 275.53125Q61.721874 277.42188 60.471874 278.34375Q59.4875 279.0625 57.971874 279.0625Q56.175 279.0625 55.159374 278.125Q54.128124 277.17188 54.128124 275.71875Q54.128124 274.10938 55.20625 273.17188Q56.26875 272.23438 58.471874 272.28125L58.471874 277.09375Q59.33125 277.0625 59.815624 276.625Q60.284374 276.17188 60.284374 275.51562Q60.284374 275.0625 60.034374 274.76562Q59.784374 274.45312 59.2375 274.29688ZM57.3 274.1875Q56.45625 274.20312 56.034374 274.60938Q55.596874 275.01562 55.596874 275.60938Q55.596874 276.23438 56.05 276.65625Q56.51875 277.0625 57.3 277.04688L57.3 274.1875ZM57.815624 265.9375Q56.8625 265.9375 55.971874 265.46875Q55.065624 265.0 54.596874 264.14062Q54.128124 263.26562 54.128124 262.20312Q54.128124 260.54688 55.20625 259.5Q56.26875 258.45312 57.89375 258.45312Q59.55 258.45312 60.64375 259.51562Q61.721874 260.57812 61.721874 262.1875Q61.721874 263.1875 61.26875 264.09375Q60.815624 265.0 59.940624 265.46875Q59.065624 265.9375 57.815624 265.9375ZM57.925 263.96875Q59.003124 263.96875 59.58125 263.45312Q60.14375 262.9375 60.14375 262.1875Q60.14375 261.4375 59.58125 260.9375Q59.003124 260.42188 57.909374 260.42188Q56.846874 260.42188 56.26875 260.9375Q55.690624 261.4375 55.690624 262.1875Q55.690624 262.9375 56.26875 263.45312Q56.846874 263.96875 57.925 263.96875ZM61.55 256.57812L51.534374 256.57812L51.534374 254.65625L55.14375 254.65625Q54.128124 253.76562 54.128124 252.54688Q54.128124 251.21875 55.096874 250.35938Q56.05 249.48438 57.846874 249.48438Q59.70625 249.48438 60.721874 250.375Q61.721874 251.26562 61.721874 252.51562Q61.721874 253.14062 61.409374 253.75Q61.096874 254.35938 60.4875 254.79688L61.55 254.79688L61.55 256.57812ZM57.76875 254.67188Q58.89375 254.67188 59.425 254.3125Q60.190624 253.8125 60.190624 252.98438Q60.190624 252.35938 59.659374 251.90625Q59.1125 251.45312 57.940624 251.45312Q56.690624 251.45312 56.14375 251.90625Q55.596874 252.35938 55.596874 253.0625Q55.596874 253.75 56.14375 254.21875Q56.675 254.67188 57.76875 254.67188ZM53.3 247.53125L51.534374 247.53125L51.534374 245.60938L53.3 245.60938L53.3 247.53125ZM54.284374 245.60938L61.33125 245.60938Q62.70625 245.60938 63.26875 245.79688Q63.846874 245.98438 64.175 246.5Q64.50313 247.01562 64.50313 247.8125Q64.50313 248.09375 64.44063 248.4375Q64.39375 248.76562 64.28438 249.14062L62.64375 248.8125Q62.675 248.67188 62.690624 248.54688Q62.70625 248.4375 62.70625 248.32812Q62.70625 248.03125 62.58125 247.84375Q62.45625 247.65625 62.26875 247.59375Q62.096874 247.53125 61.221874 247.53125L54.284374 247.53125L54.284374 245.60938ZM59.2375 239.29688L59.565624 237.375Q60.6125 237.75 61.175 238.54688Q61.721874 239.34375 61.721874 240.53125Q61.721874 242.42188 60.471874 243.34375Q59.4875 244.0625 57.971874 244.0625Q56.175 244.0625 55.159374 243.125Q54.128124 242.17188 54.128124 240.71875Q54.128124 239.10938 55.20625 238.17188Q56.26875 237.23438 58.471874 237.28125L58.471874 242.09375Q59.33125 242.0625 59.815624 241.625Q60.284374 241.17188 60.284374 240.51562Q60.284374 240.0625 60.034374 239.76562Q59.784374 239.45312 59.2375 239.29688ZM57.3 239.1875Q56.45625 239.20312 56.034374 239.60938Q55.596874 240.01562 55.596874 240.60938Q55.596874 241.23438 56.05 241.65625Q56.51875 242.0625 57.3 242.04688L57.3 239.1875ZM56.440624 228.17188L56.784374 230.0625Q56.20625 230.15625 55.925 230.5Q55.64375 230.82812 55.64375 231.375Q55.64375 232.09375 56.14375 232.51562Q56.628124 232.9375 57.784374 232.9375Q59.08125 232.9375 59.6125 232.51562Q60.14375 232.07812 60.14375 231.34375Q60.14375 230.79688 59.83125 230.45312Q59.51875 230.09375 58.76875 229.95312L59.08125 228.0625Q60.39375 228.35938 61.065624 229.20312Q61.721874 230.03125 61.721874 231.4375Q61.721874 233.03125 60.721874 233.98438Q59.70625 234.92188 57.925 234.92188Q56.128124 234.92188 55.128124 233.96875Q54.128124 233.01562 54.128124 231.39062Q54.128124 230.07812 54.70625 229.29688Q55.26875 228.5 56.440624 228.17188ZM54.284374 223.17188L55.815624 223.17188L55.815624 224.48438L58.753124 224.48438Q59.628124 224.48438 59.784374 224.45312Q59.925 224.40625 60.034374 224.28125Q60.128124 224.14062 60.128124 223.9375Q60.128124 223.67188 59.940624 223.17188L61.425 223.01562Q61.721874 223.67188 61.721874 224.53125Q61.721874 225.04688 61.55 225.46875Q61.3625 225.875 61.096874 226.07812Q60.815624 226.26562 60.346874 226.34375Q60.003124 226.40625 58.9875 226.40625L55.815624 226.40625L55.815624 227.28125L54.284374 227.28125L54.284374 226.40625L52.846874 226.40625L51.721874 224.48438L54.284374 224.48438L54.284374 223.17188ZM53.3 217.5L51.534374 217.5L51.534374 215.57812L53.3 215.57812L53.3 217.5ZM61.55 217.5L54.284374 217.5L54.284374 215.57812L61.55 215.57812L61.55 217.5ZM59.471874 214.17188L59.190624 212.25Q59.7375 212.125 60.034374 211.75Q60.33125 211.375 60.33125 210.6875Q60.33125 209.95312 60.05 209.57812Q59.8625 209.3125 59.534374 209.3125Q59.315624 209.3125 59.175 209.45312Q59.034374 209.59375 58.925 210.09375Q58.409374 212.42188 57.9875 213.04688Q57.39375 213.90625 56.346874 213.90625Q55.409374 213.90625 54.76875 213.17188Q54.128124 212.42188 54.128124 210.84375Q54.128124 209.35938 54.6125 208.64062Q55.096874 207.90625 56.05 207.64062L56.378124 209.45312Q55.95625 209.5625 55.7375 209.89062Q55.503124 210.21875 55.503124 210.8125Q55.503124 211.57812 55.721874 211.90625Q55.8625 212.125 56.1125 212.125Q56.315624 212.125 56.45625 211.92188Q56.64375 211.67188 57.003124 210.14062Q57.346874 208.59375 57.846874 207.98438Q58.3625 207.39062 59.284374 207.39062Q60.284374 207.39062 61.003124 208.23438Q61.721874 209.0625 61.721874 210.6875Q61.721874 212.17188 61.1125 213.04688Q60.503124 213.90625 59.471874 214.17188ZM56.503124 200.0625L56.190624 201.79688Q55.14375 201.51562 54.64375 200.79688Q54.128124 200.07812 54.128124 198.65625Q54.128124 197.375 54.440624 196.75Q54.7375 196.10938 55.20625 195.85938Q55.675 195.60938 56.925 195.60938L59.159374 195.625Q60.128124 195.625 60.58125 195.53125Q61.034374 195.4375 61.55 195.1875L61.55 197.07812Q61.3625 197.15625 60.9875 197.26562Q60.815624 197.3125 60.753124 197.34375Q61.2375 197.82812 61.4875 198.39062Q61.721874 198.95312 61.721874 199.59375Q61.721874 200.70312 61.1125 201.35938Q60.503124 202.0 59.565624 202.0Q58.95625 202.0 58.471874 201.70312Q57.9875 201.40625 57.7375 200.89062Q57.471874 200.35938 57.284374 199.35938Q57.034374 198.01562 56.815624 197.48438L56.628124 197.48438Q56.065624 197.48438 55.83125 197.76562Q55.596874 198.03125 55.596874 198.79688Q55.596874 199.3125 55.8 199.59375Q56.003124 199.875 56.503124 200.0625ZM58.065624 197.48438Q58.190624 197.85938 58.3625 198.65625Q58.534374 199.45312 58.690624 199.70312Q58.95625 200.07812 59.3625 200.07812Q59.76875 200.07812 60.065624 199.78125Q60.3625 199.48438 60.3625 199.01562Q60.3625 198.5 60.01875 198.01562Q59.753124 197.67188 59.378124 197.5625Q59.14375 197.48438 58.440624 197.48438L58.065624 197.48438ZM54.284374 190.17188L55.815624 190.17188L55.815624 191.48438L58.753124 191.48438Q59.628124 191.48438 59.784374 191.45312Q59.925 191.40625 60.034374 191.28125Q60.128124 191.14062 60.128124 190.9375Q60.128124 190.67188 59.940624 190.17188L61.425 190.01562Q61.721874 190.67188 61.721874 191.53125Q61.721874 192.04688 61.55 192.46875Q61.3625 192.875 61.096874 193.07812Q60.815624 193.26562 60.346874 193.34375Q60.003124 193.40625 58.9875 193.40625L55.815624 193.40625L55.815624 194.28125L54.284374 194.28125L54.284374 193.40625L52.846874 193.40625L51.721874 191.48438L54.284374 191.48438L54.284374 190.17188ZM56.503124 183.0625L56.190624 184.79688Q55.14375 184.51562 54.64375 183.79688Q54.128124 183.07812 54.128124 181.65625Q54.128124 180.375 54.440624 179.75Q54.7375 179.10938 55.20625 178.85938Q55.675 178.60938 56.925 178.60938L59.159374 178.625Q60.128124 178.625 60.58125 178.53125Q61.034374 178.4375 61.55 178.1875L61.55 180.07812Q61.3625 180.15625 60.9875 180.26562Q60.815624 180.3125 60.753124 180.34375Q61.2375 180.82812 61.4875 181.39062Q61.721874 181.95312 61.721874 182.59375Q61.721874 183.70312 61.1125 184.35938Q60.503124 185.0 59.565624 185.0Q58.95625 185.0 58.471874 184.70312Q57.9875 184.40625 57.7375 183.89062Q57.471874 183.35938 57.284374 182.35938Q57.034374 181.01562 56.815624 180.48438L56.628124 180.48438Q56.065624 180.48438 55.83125 180.76562Q55.596874 181.03125 55.596874 181.79688Q55.596874 182.3125 55.8 182.59375Q56.003124 182.875 56.503124 183.0625ZM58.065624 180.48438Q58.190624 180.85938 58.3625 181.65625Q58.534374 182.45312 58.690624 182.70312Q58.95625 183.07812 59.3625 183.07812Q59.76875 183.07812 60.065624 182.78125Q60.3625 182.48438 60.3625 182.01562Q60.3625 181.5 60.01875 181.01562Q59.753124 180.67188 59.378124 180.5625Q59.14375 180.48438 58.440624 180.48438L58.065624 180.48438ZM56.440624 166.17188L56.784374 168.0625Q56.20625 168.15625 55.925 168.5Q55.64375 168.82812 55.64375 169.375Q55.64375 170.09375 56.14375 170.51562Q56.628124 170.9375 57.784374 170.9375Q59.08125 170.9375 59.6125 170.51562Q60.14375 170.07812 60.14375 169.34375Q60.14375 168.79688 59.83125 168.45312Q59.51875 168.09375 58.76875 167.95312L59.08125 166.0625Q60.39375 166.35938 61.065624 167.20312Q61.721874 168.03125 61.721874 169.4375Q61.721874 171.03125 60.721874 171.98438Q59.70625 172.92188 57.925 172.92188Q56.128124 172.92188 55.128124 171.96875Q54.128124 171.01562 54.128124 169.39062Q54.128124 168.07812 54.70625 167.29688Q55.26875 166.5 56.440624 166.17188ZM57.815624 164.9375Q56.8625 164.9375 55.971874 164.46875Q55.065624 164.0 54.596874 163.14062Q54.128124 162.26562 54.128124 161.20312Q54.128124 159.54688 55.20625 158.5Q56.26875 157.45312 57.89375 157.45312Q59.55 157.45312 60.64375 158.51562Q61.721874 159.57812 61.721874 161.1875Q61.721874 162.1875 61.26875 163.09375Q60.815624 164.0 59.940624 164.46875Q59.065624 164.9375 57.815624 164.9375ZM57.925 162.96875Q59.003124 162.96875 59.58125 162.45312Q60.14375 161.9375 60.14375 161.1875Q60.14375 160.4375 59.58125 159.9375Q59.003124 159.42188 57.909374 159.42188Q56.846874 159.42188 56.26875 159.9375Q55.690624 160.4375 55.690624 161.1875Q55.690624 161.9375 56.26875 162.45312Q56.846874 162.96875 57.925 162.96875ZM61.55 148.89062L61.55 150.8125L57.846874 150.8125Q56.675 150.8125 56.33125 150.9375Q55.971874 151.0625 55.784374 151.34375Q55.596874 151.60938 55.596874 152.0Q55.596874 152.5 55.878124 152.90625Q56.14375 153.29688 56.596874 153.45312Q57.05 153.59375 58.26875 153.59375L61.55 153.59375L61.55 155.51562L54.284374 155.51562L54.284374 153.71875L55.3625 153.71875Q54.128124 152.78125 54.128124 151.32812Q54.128124 150.70312 54.3625 150.17188Q54.58125 149.64062 54.940624 149.375Q55.3 149.10938 55.753124 149.0Q56.190624 148.89062 57.034374 148.89062L61.55 148.89062ZM59.471874 147.17188L59.190624 145.25Q59.7375 145.125 60.034374 144.75Q60.33125 144.375 60.33125 143.6875Q60.33125 142.95312 60.05 142.57812Q59.8625 142.3125 59.534374 142.3125Q59.315624 142.3125 59.175 142.45312Q59.034374 142.59375 58.925 143.09375Q58.409374 145.42188 57.9875 146.04688Q57.39375 146.90625 56.346874 146.90625Q55.409374 146.90625 54.76875 146.17188Q54.128124 145.42188 54.128124 143.84375Q54.128124 142.35938 54.6125 141.64062Q55.096874 140.90625 56.05 140.64062L56.378124 142.45312Q55.95625 142.5625 55.7375 142.89062Q55.503124 143.21875 55.503124 143.8125Q55.503124 144.57812 55.721874 144.90625Q55.8625 145.125 56.1125 145.125Q56.315624 145.125 56.45625 144.92188Q56.64375 144.67188 57.003124 143.14062Q57.346874 141.59375 57.846874 140.98438Q58.3625 140.39062 59.284374 140.39062Q60.284374 140.39062 61.003124 141.23438Q61.721874 142.0625 61.721874 143.6875Q61.721874 145.17188 61.1125 146.04688Q60.503124 146.90625 59.471874 147.17188ZM54.284374 135.17188L55.815624 135.17188L55.815624 136.48438L58.753124 136.48438Q59.628124 136.48438 59.784374 136.45312Q59.925 136.40625 60.034374 136.28125Q60.128124 136.14062 60.128124 135.9375Q60.128124 135.67188 59.940624 135.17188L61.425 135.01562Q61.721874 135.67188 61.721874 136.53125Q61.721874 137.04688 61.55 137.46875Q61.3625 137.875 61.096874 138.07812Q60.815624 138.26562 60.346874 138.34375Q60.003124 138.40625 58.9875 138.40625L55.815624 138.40625L55.815624 139.28125L54.284374 139.28125L54.284374 138.40625L52.846874 138.40625L51.721874 136.48438L54.284374 136.48438L54.284374 135.17188ZM56.503124 132.0625L56.190624 133.79688Q55.14375 133.51562 54.64375 132.79688Q54.128124 132.07812 54.128124 130.65625Q54.128124 129.375 54.440624 128.75Q54.7375 128.10938 55.20625 127.859375Q55.675 127.609375 56.925 127.609375L59.159374 127.625Q60.128124 127.625 60.58125 127.53125Q61.034374 127.4375 61.55 127.1875L61.55 129.07812Q61.3625 129.15625 60.9875 129.26562Q60.815624 129.3125 60.753124 129.34375Q61.2375 129.82812 61.4875 130.39062Q61.721874 130.95312 61.721874 131.59375Q61.721874 132.70312 61.1125 133.35938Q60.503124 134.0 59.565624 134.0Q58.95625 134.0 58.471874 133.70312Q57.9875 133.40625 57.7375 132.89062Q57.471874 132.35938 57.284374 131.35938Q57.034374 130.01562 56.815624 129.48438L56.628124 129.48438Q56.065624 129.48438 55.83125 129.76562Q55.596874 130.03125 55.596874 130.79688Q55.596874 131.3125 55.8 131.59375Q56.003124 131.875 56.503124 132.0625ZM58.065624 129.48438Q58.190624 129.85938 58.3625 130.65625Q58.534374 131.45312 58.690624 131.70312Q58.95625 132.07812 59.3625 132.07812Q59.76875 132.07812 60.065624 131.78125Q60.3625 131.48438 60.3625 131.01562Q60.3625 130.5 60.01875 130.01562Q59.753124 129.67188 59.378124 129.5625Q59.14375 129.48438 58.440624 129.48438L58.065624 129.48438ZM61.55 118.890625L61.55 120.8125L57.846874 120.8125Q56.675 120.8125 56.33125 120.9375Q55.971874 121.0625 55.784374 121.34375Q55.596874 121.609375 55.596874 122.0Q55.596874 122.5 55.878124 122.90625Q56.14375 123.296875 56.596874 123.453125Q57.05 123.59375 58.26875 123.59375L61.55 123.59375L61.55 125.515625L54.284374 125.515625L54.284374 123.71875L55.3625 123.71875Q54.128124 122.78125 54.128124 121.328125Q54.128124 120.703125 54.3625 120.171875Q54.58125 119.640625 54.940624 119.375Q55.3 119.109375 55.753124 119.0Q56.190624 118.890625 57.034374 118.890625L61.55 118.890625ZM54.284374 113.171875L55.815624 113.171875L55.815624 114.484375L58.753124 114.484375Q59.628124 114.484375 59.784374 114.453125Q59.925 114.40625 60.034374 114.28125Q60.128124 114.140625 60.128124 113.9375Q60.128124 113.671875 59.940624 113.171875L61.425 113.015625Q61.721874 113.671875 61.721874 114.53125Q61.721874 115.046875 61.55 115.46875Q61.3625 115.875 61.096874 116.078125Q60.815624 116.265625 60.346874 116.34375Q60.003124 116.40625 58.9875 116.40625L55.815624 116.40625L55.815624 117.28125L54.284374 117.28125L54.284374 116.40625L52.846874 116.40625L51.721874 114.484375L54.284374 114.484375L54.284374 113.171875ZM59.471874 108.171875L59.190624 106.25Q59.7375 106.125 60.034374 105.75Q60.33125 105.375 60.33125 104.6875Q60.33125 103.953125 60.05 103.578125Q59.8625 103.3125 59.534374 103.3125Q59.315624 103.3125 59.175 103.453125Q59.034374 103.59375 58.925 104.09375Q58.409374 106.421875 57.9875 107.046875Q57.39375 107.90625 56.346874 107.90625Q55.409374 107.90625 54.76875 107.171875Q54.128124 106.421875 54.128124 104.84375Q54.128124 103.359375 54.6125 102.640625Q55.096874 101.90625 56.05 101.640625L56.378124 103.453125Q55.95625 103.5625 55.7375 103.890625Q55.503124 104.21875 55.503124 104.8125Q55.503124 105.578125 55.721874 105.90625Q55.8625 106.125 56.1125 106.125Q56.315624 106.125 56.45625 105.921875Q56.64375 105.671875 57.003124 104.140625Q57.346874 102.59375 57.846874 101.984375Q58.3625 101.390625 59.284374 101.390625Q60.284374 101.390625 61.003124 102.234375Q61.721874 103.0625 61.721874 104.6875Q61.721874 106.171875 61.1125 107.046875Q60.503124 107.90625 59.471874 108.171875ZM54.284374 99.546875L54.284374 97.765625L55.3625 97.765625Q54.815624 97.40625 54.471874 96.8125Q54.128124 96.21875 54.128124 95.5Q54.128124 94.234375 55.128124 93.359375Q56.1125 92.46875 57.878124 92.46875Q59.690624 92.46875 60.70625 93.359375Q61.721874 94.25 61.721874 95.515625Q61.721874 96.109375 61.4875 96.609375Q61.2375 97.09375 60.659374 97.625L64.31563 97.625L64.31563 99.546875L54.284374 99.546875ZM57.8 97.65625Q59.01875 97.65625 59.6125 97.171875Q60.190624 96.671875 60.190624 95.984375Q60.190624 95.3125 59.659374 94.875Q59.1125 94.421875 57.89375 94.421875Q56.753124 94.421875 56.20625 94.890625Q55.64375 95.34375 55.64375 96.015625Q55.64375 96.71875 56.190624 97.1875Q56.7375 97.65625 57.8 97.65625ZM59.2375 86.296875L59.565624 84.375Q60.6125 84.75 61.175 85.546875Q61.721874 86.34375 61.721874 87.53125Q61.721874 89.421875 60.471874 90.34375Q59.4875 91.0625 57.971874 91.0625Q56.175 91.0625 55.159374 90.125Q54.128124 89.171875 54.128124 87.71875Q54.128124 86.109375 55.20625 85.171875Q56.26875 84.234375 58.471874 84.28125L58.471874 89.09375Q59.33125 89.0625 59.815624 88.625Q60.284374 88.171875 60.284374 87.515625Q60.284374 87.0625 60.034374 86.765625Q59.784374 86.453125 59.2375 86.296875ZM57.3 86.1875Q56.45625 86.203125 56.034374 86.609375Q55.596874 87.015625 55.596874 87.609375Q55.596874 88.234375 56.05 88.65625Q56.51875 89.0625 57.3 89.046875L57.3 86.1875ZM59.2375 77.296875L59.565624 75.375Q60.6125 75.75 61.175 76.546875Q61.721874 77.34375 61.721874 78.53125Q61.721874 80.421875 60.471874 81.34375Q59.4875 82.0625 57.971874 82.0625Q56.175 82.0625 55.159374 81.125Q54.128124 80.171875 54.128124 78.71875Q54.128124 77.109375 55.20625 76.171875Q56.26875 75.234375 58.471874 75.28125L58.471874 80.09375Q59.33125 80.0625 59.815624 79.625Q60.284374 79.171875 60.284374 78.515625Q60.284374 78.0625 60.034374 77.765625Q59.784374 77.453125 59.2375 77.296875ZM57.3 77.1875Q56.45625 77.203125 56.034374 77.609375Q55.596874 78.015625 55.596874 78.609375Q55.596874 79.234375 56.05 79.65625Q56.51875 80.0625 57.3 80.046875L57.3 77.1875ZM61.55 65.84375L61.55 67.625L60.4875 67.625Q61.1125 68.0625 61.425 68.671875Q61.721874 69.28125 61.721874 69.890625Q61.721874 71.140625 60.70625 72.03125Q59.690624 72.921875 57.89375 72.921875Q56.05 72.921875 55.096874 72.0625Q54.128124 71.1875 54.128124 69.859375Q54.128124 68.640625 55.14375 67.75L51.534374 67.75L51.534374 65.84375L61.55 65.84375ZM57.76875 70.96875Q58.925 70.96875 59.440624 70.640625Q60.190624 70.171875 60.190624 69.34375Q60.190624 68.6875 59.628124 68.21875Q59.065624 67.75 57.940624 67.75Q56.690624 67.75 56.14375 68.203125Q55.596874 68.65625 55.596874 69.359375Q55.596874 70.046875 56.14375 70.515625Q56.675 70.96875 57.76875 70.96875Z" fill-rule="nonzero"/><path stroke="#1e1e2e" stroke-width="3.0" stroke-linejoin="round" stroke-linecap="round" d="M232.91771 277.67188L234.44896 277.67188L234.44896 278.98438L237.38646 278.98438Q238.26146 278.98438 238.41771 278.95312Q238.55833 278.90625 238.66771 278.78125Q238.76146 278.64062 238.76146 278.4375Q238.76146 278.17188 238.57396 277.67188L240.05833 277.51562Q240.35521 278.17188 240.35521 279.03125Q240.35521 279.54688 240.18333 279.96875Q239.99583 280.375 239.73021 280.57812Q239.44896 280.76562 238.98021 280.84375Q238.63646 280.90625 237.62083 280.90625L234.44896 280.90625L234.44896 281.78125L232.91771 281.78125L232.91771 280.90625L231.48021 280.90625L230.35521 278.98438L232.91771 278.98438L232.91771 277.67188ZM230.16771 274.07812L233.83958 274.07812Q232.76146 273.15625 232.76146 271.85938Q232.76146 271.20312 233.01146 270.67188Q233.24583 270.125 233.63646 269.85938Q234.01146 269.59375 234.48021 269.5Q234.94896 269.39062 235.91771 269.39062L240.18333 269.39062L240.18333 271.3125L236.35521 271.3125Q235.19896 271.3125 234.90208 271.42188Q234.58958 271.53125 234.41771 271.8125Q234.23021 272.07812 234.23021 272.5Q234.23021 272.98438 234.46458 273.35938Q234.69896 273.73438 235.16771 273.90625Q235.63646 274.07812 236.54271 274.07812L240.18333 274.07812L240.18333 276.0L230.16771 276.0L230.16771 274.07812ZM237.87083 262.79688L238.19896 260.875Q239.24583 261.25 239.80833 262.04688Q240.35521 262.84375 240.35521 264.03125Q240.35521 265.92188 239.10521 266.84375Q238.12083 267.5625 236.60521 267.5625Q234.80833 267.5625 233.79271 266.625Q232.76146 265.67188 232.76146 264.21875Q232.76146 262.60938 233.83958 261.67188Q234.90208 260.73438 237.10521 260.78125L237.10521 265.59375Q237.96458 265.5625 238.44896 265.125Q238.91771 264.67188 238.91771 264.01562Q238.91771 263.5625 238.66771 263.26562Q238.41771 262.95312 237.87083 262.79688ZM235.93333 262.6875Q235.08958 262.70312 234.66771 263.10938Q234.23021 263.51562 234.23021 264.10938Q234.23021 264.73438 234.68333 265.15625Q235.15208 265.5625 235.93333 265.54688L235.93333 262.6875ZM236.44896 254.4375Q235.49583 254.4375 234.60521 253.96875Q233.69896 253.5 233.23021 252.64062Q232.76146 251.76562 232.76146 250.70312Q232.76146 249.04688 233.83958 248.0Q234.90208 246.95312 236.52708 246.95312Q238.18333 246.95312 239.27708 248.01562Q240.35521 249.07812 240.35521 250.6875Q240.35521 251.6875 239.90208 252.59375Q239.44896 253.5 238.57396 253.96875Q237.69896 254.4375 236.44896 254.4375ZM236.55833 252.46875Q237.63646 252.46875 238.21458 251.95312Q238.77708 251.4375 238.77708 250.6875Q238.77708 249.9375 238.21458 249.4375Q237.63646 248.92188 236.54271 248.92188Q235.48021 248.92188 234.90208 249.4375Q234.32396 249.9375 234.32396 250.6875Q234.32396 251.4375 234.90208 251.95312Q235.48021 252.46875 236.55833 252.46875ZM240.18333 245.07812L230.16771 245.07812L230.16771 243.15625L233.77708 243.15625Q232.76146 242.26562 232.76146 241.04688Q232.76146 239.71875 233.73021 238.85938Q234.68333 237.98438 236.48021 237.98438Q238.33958 237.98438 239.35521 238.875Q240.35521 239.76562 240.35521 241.01562Q240.35521 241.64062 240.04271 242.25Q239.73021 242.85938 239.12083 243.29688L240.18333 243.29688L240.18333 245.07812ZM236.40208 243.17188Q237.52708 243.17188 238.05833 242.8125Q238.82396 242.3125 238.82396 241.48438Q238.82396 240.85938 238.29271 240.40625Q237.74583 239.95312 236.57396 239.95312Q235.32396 239.95312 234.77708 240.40625Q234.23021 240.85938 234.23021 241.5625Q234.23021 242.25 234.77708 242.71875Q235.30833 243.17188 236.40208 243.17188ZM231.93333 236.03125L230.16771 236.03125L230.16771 234.10938L231.93333 234.10938L231.93333 236.03125ZM232.91771 234.10938L239.96458 234.10938Q241.33958 234.10938 241.90208 234.29688Q242.48021 234.48438 242.80833 235.0Q243.13646 235.51562 243.13646 236.3125Q243.13646 236.59375 243.07396 236.9375Q243.02708 237.26562 242.91771 237.64062L241.27708 237.3125Q241.30833 237.17188 241.32396 237.04688Q241.33958 236.9375 241.33958 236.82812Q241.33958 236.53125 241.21458 236.34375Q241.08958 236.15625 240.90208 236.09375Q240.73021 236.03125 239.85521 236.03125L232.91771 236.03125L232.91771 234.10938ZM237.87083 227.79688L238.19896 225.875Q239.24583 226.25 239.80833 227.04688Q240.35521 227.84375 240.35521 229.03125Q240.35521 230.92188 239.10521 231.84375Q238.12083 232.5625 236.60521 232.5625Q234.80833 232.5625 233.79271 231.625Q232.76146 230.67188 232.76146 229.21875Q232.76146 227.60938 233.83958 226.67188Q234.90208 225.73438 237.10521 225.78125L237.10521 230.59375Q237.96458 230.5625 238.44896 230.125Q238.91771 229.67188 238.91771 229.01562Q238.91771 228.5625 238.66771 228.26562Q238.41771 227.95312 237.87083 227.79688ZM235.93333 227.6875Q235.08958 227.70312 234.66771 228.10938Q234.23021 228.51562 234.23021 229.10938Q234.23021 229.73438 234.68333 230.15625Q235.15208 230.5625 235.93333 230.54688L235.93333 227.6875ZM235.07396 216.67188L235.41771 218.5625Q234.83958 218.65625 234.55833 219.0Q234.27708 219.32812 234.27708 219.875Q234.27708 220.59375 234.77708 221.01562Q235.26146 221.4375 236.41771 221.4375Q237.71458 221.4375 238.24583 221.01562Q238.77708 220.57812 238.77708 219.84375Q238.77708 219.29688 238.46458 218.95312Q238.15208 218.59375 237.40208 218.45312L237.71458 216.5625Q239.02708 216.85938 239.69896 217.70312Q240.35521 218.53125 240.35521 219.9375Q240.35521 221.53125 239.35521 222.48438Q238.33958 223.42188 236.55833 223.42188Q234.76146 223.42188 233.76146 222.46875Q232.76146 221.51562 232.76146 219.89062Q232.76146 218.57812 233.33958 217.79688Q233.90208 217.0 235.07396 216.67188ZM232.91771 211.67188L234.44896 211.67188L234.44896 212.98438L237.38646 212.98438Q238.26146 212.98438 238.41771 212.95312Q238.55833 212.90625 238.66771 212.78125Q238.76146 212.64062 238.76146 212.4375Q238.76146 212.17188 238.57396 211.67188L240.05833 211.51562Q240.35521 212.17188 240.35521 213.03125Q240.35521 213.54688 240.18333 213.96875Q239.99583 214.375 239.73021 214.57812Q239.44896 214.76562 238.98021 214.84375Q238.63646 214.90625 237.62083 214.90625L234.44896 214.90625L234.44896 215.78125L232.91771 215.78125L232.91771 214.90625L231.48021 214.90625L230.35521 212.98438L232.91771 212.98438L232.91771 211.67188ZM238.10521 206.67188L237.82396 204.75Q238.37083 204.625 238.66771 204.25Q238.96458 203.875 238.96458 203.1875Q238.96458 202.45312 238.68333 202.07812Q238.49583 201.8125 238.16771 201.8125Q237.94896 201.8125 237.80833 201.95312Q237.66771 202.09375 237.55833 202.59375Q237.04271 204.92188 236.62083 205.54688Q236.02708 206.40625 234.98021 206.40625Q234.04271 206.40625 233.40208 205.67188Q232.76146 204.92188 232.76146 203.34375Q232.76146 201.85938 233.24583 201.14062Q233.73021 200.40625 234.68333 200.14062L235.01146 201.95312Q234.58958 202.0625 234.37083 202.39062Q234.13646 202.71875 234.13646 203.3125Q234.13646 204.07812 234.35521 204.40625Q234.49583 204.625 234.74583 204.625Q234.94896 204.625 235.08958 204.42188Q235.27708 204.17188 235.63646 202.64062Q235.98021 201.09375 236.48021 200.48438Q236.99583 199.89062 237.91771 199.89062Q238.91771 199.89062 239.63646 200.73438Q240.35521 201.5625 240.35521 203.1875Q240.35521 204.67188 239.74583 205.54688Q239.13646 206.40625 238.10521 206.67188ZM232.91771 194.67188L234.44896 194.67188L234.44896 195.98438L237.38646 195.98438Q238.26146 195.98438 238.41771 195.95312Q238.55833 195.90625 238.66771 195.78125Q238.76146 195.64062 238.76146 195.4375Q238.76146 195.17188 238.57396 194.67188L240.05833 194.51562Q240.35521 195.17188 240.35521 196.03125Q240.35521 196.54688 240.18333 196.96875Q239.99583 197.375 239.73021 197.57812Q239.44896 197.76562 238.98021 197.84375Q238.63646 197.90625 237.62083 197.90625L234.44896 197.90625L234.44896 198.78125L232.91771 198.78125L232.91771 197.90625L231.48021 197.90625L230.35521 195.98438L232.91771 195.98438L232.91771 194.67188ZM235.13646 191.5625L234.82396 193.29688Q233.77708 193.01562 233.27708 192.29688Q232.76146 191.57812 232.76146 190.15625Q232.76146 188.875 233.07396 188.25Q233.37083 187.60938 233.83958 187.35938Q234.30833 187.10938 235.55833 187.10938L237.79271 187.125Q238.76146 187.125 239.21458 187.03125Q239.66771 186.9375 240.18333 186.6875L240.18333 188.57812Q239.99583 188.65625 239.62083 188.76562Q239.44896 188.8125 239.38646 188.84375Q239.87083 189.32812 240.12083 189.89062Q240.35521 190.45312 240.35521 191.09375Q240.35521 192.20312 239.74583 192.85938Q239.13646 193.5 238.19896 193.5Q237.58958 193.5 237.10521 193.20312Q236.62083 192.90625 236.37083 192.39062Q236.10521 191.85938 235.91771 190.85938Q235.66771 189.51562 235.44896 188.98438L235.26146 188.98438Q234.69896 188.98438 234.46458 189.26562Q234.23021 189.53125 234.23021 190.29688Q234.23021 190.8125 234.43333 191.09375Q234.63646 191.375 235.13646 191.5625ZM236.69896 188.98438Q236.82396 189.35938 236.99583 190.15625Q237.16771 190.95312 237.32396 191.20312Q237.58958 191.57812 237.99583 191.57812Q238.40208 191.57812 238.69896 191.28125Q238.99583 190.98438 238.99583 190.51562Q238.99583 190.0 238.65208 189.51562Q238.38646 189.17188 238.01146 189.0625Q237.77708 188.98438 237.07396 188.98438L236.69896 188.98438ZM240.18333 183.15625L240.18333 185.07812L232.91771 185.07812L232.91771 183.29688L233.94896 183.29688Q233.23021 182.82812 232.99583 182.46875Q232.76146 182.10938 232.76146 181.64062Q232.76146 180.98438 233.12083 180.375L234.79271 180.96875Q234.48021 181.45312 234.48021 181.875Q234.48021 182.28125 234.71458 182.5625Q234.93333 182.82812 235.51146 183.0Q236.08958 183.15625 237.93333 183.15625L240.18333 183.15625ZM232.91771 175.67188L234.44896 175.67188L234.44896 176.98438L237.38646 176.98438Q238.26146 176.98438 238.41771 176.95312Q238.55833 176.90625 238.66771 176.78125Q238.76146 176.64062 238.76146 176.4375Q238.76146 176.17188 238.57396 175.67188L240.05833 175.51562Q240.35521 176.17188 240.35521 177.03125Q240.35521 177.54688 240.18333 177.96875Q239.99583 178.375 239.73021 178.57812Q239.44896 178.76562 238.98021 178.84375Q238.63646 178.90625 237.62083 178.90625L234.44896 178.90625L234.44896 179.78125L232.91771 179.78125L232.91771 178.90625L231.48021 178.90625L230.35521 176.98438L232.91771 176.98438L232.91771 175.67188ZM238.10521 174.67188L237.82396 172.75Q238.37083 172.625 238.66771 172.25Q238.96458 171.875 238.96458 171.1875Q238.96458 170.45312 238.68333 170.07812Q238.49583 169.8125 238.16771 169.8125Q237.94896 169.8125 237.80833 169.95312Q237.66771 170.09375 237.55833 170.59375Q237.04271 172.92188 236.62083 173.54688Q236.02708 174.40625 234.98021 174.40625Q234.04271 174.40625 233.40208 173.67188Q232.76146 172.92188 232.76146 171.34375Q232.76146 169.85938 233.24583 169.14062Q233.73021 168.40625 234.68333 168.14062L235.01146 169.95312Q234.58958 170.0625 234.37083 170.39062Q234.13646 170.71875 234.13646 171.3125Q234.13646 172.07812 234.35521 172.40625Q234.49583 172.625 234.74583 172.625Q234.94896 172.625 235.08958 172.42188Q235.27708 172.17188 235.63646 170.64062Q235.98021 169.09375 236.48021 168.48438Q236.99583 167.89062 237.91771 167.89062Q238.91771 167.89062 239.63646 168.73438Q240.35521 169.5625 240.35521 171.1875Q240.35521 172.67188 239.74583 173.54688Q239.13646 174.40625 238.10521 174.67188ZM235.13646 160.5625L234.82396 162.29688Q233.77708 162.01562 233.27708 161.29688Q232.76146 160.57812 232.76146 159.15625Q232.76146 157.875 233.07396 157.25Q233.37083 156.60938 233.83958 156.35938Q234.30833 156.10938 235.55833 156.10938L237.79271 156.125Q238.76146 156.125 239.21458 156.03125Q239.66771 155.9375 240.18333 155.6875L240.18333 157.57812Q239.99583 157.65625 239.62083 157.76562Q239.44896 157.8125 239.38646 157.84375Q239.87083 158.32812 240.12083 158.89062Q240.35521 159.45312 240.35521 160.09375Q240.35521 161.20312 239.74583 161.85938Q239.13646 162.5 238.19896 162.5Q237.58958 162.5 237.10521 162.20312Q236.62083 161.90625 236.37083 161.39062Q236.10521 160.85938 235.91771 159.85938Q235.66771 158.51562 235.44896 157.98438L235.26146 157.98438Q234.69896 157.98438 234.46458 158.26562Q234.23021 158.53125 234.23021 159.29688Q234.23021 159.8125 234.43333 160.09375Q234.63646 160.375 235.13646 160.5625ZM236.69896 157.98438Q236.82396 158.35938 236.99583 159.15625Q237.16771 159.95312 237.32396 160.20312Q237.58958 160.57812 237.99583 160.57812Q238.40208 160.57812 238.69896 160.28125Q238.99583 159.98438 238.99583 159.51562Q238.99583 159.0 238.65208 158.51562Q238.38646 158.17188 238.01146 158.0625Q237.77708 157.98438 237.07396 157.98438L236.69896 157.98438ZM235.07396 147.67188L235.41771 149.5625Q234.83958 149.65625 234.55833 150.0Q234.27708 150.32812 234.27708 150.875Q234.27708 151.59375 234.77708 152.01562Q235.26146 152.4375 236.41771 152.4375Q237.71458 152.4375 238.24583 152.01562Q238.77708 151.57812 238.77708 150.84375Q238.77708 150.29688 238.46458 149.95312Q238.15208 149.59375 237.40208 149.45312L237.71458 147.5625Q239.02708 147.85938 239.69896 148.70312Q240.35521 149.53125 240.35521 150.9375Q240.35521 152.53125 239.35521 153.48438Q238.33958 154.42188 236.55833 154.42188Q234.76146 154.42188 233.76146 153.46875Q232.76146 152.51562 232.76146 150.89062Q232.76146 149.57812 233.33958 148.79688Q233.90208 148.0 235.07396 147.67188ZM235.07396 139.67188L235.41771 141.5625Q234.83958 141.65625 234.55833 142.0Q234.27708 142.32812 234.27708 142.875Q234.27708 143.59375 234.77708 144.01562Q235.26146 144.4375 236.41771 144.4375Q237.71458 144.4375 238.24583 144.01562Q238.77708 143.57812 238.77708 142.84375Q238.77708 142.29688 238.46458 141.95312Q238.15208 141.59375 237.40208 141.45312L237.71458 139.5625Q239.02708 139.85938 239.69896 140.70312Q240.35521 141.53125 240.35521 142.9375Q240.35521 144.53125 239.35521 145.48438Q238.33958 146.42188 236.55833 146.42188Q234.76146 146.42188 233.76146 145.46875Q232.76146 144.51562 232.76146 142.89062Q232.76146 141.57812 233.33958 140.79688Q233.90208 140.0 235.07396 139.67188ZM237.87083 133.79688L238.19896 131.875Q239.24583 132.25 239.80833 133.04688Q240.35521 133.84375 240.35521 135.03125Q240.35521 136.92188 239.10521 137.84375Q238.12083 138.5625 236.60521 138.5625Q234.80833 138.5625 233.79271 137.625Q232.76146 136.67188 232.76146 135.21875Q232.76146 133.60938 233.83958 132.67188Q234.90208 131.73438 237.10521 131.78125L237.10521 136.59375Q237.96458 136.5625 238.44896 136.125Q238.91771 135.67188 238.91771 135.01562Q238.91771 134.5625 238.66771 134.26562Q238.41771 133.95312 237.87083 133.79688ZM235.93333 133.6875Q235.08958 133.70312 234.66771 134.10938Q234.23021 134.51562 234.23021 135.10938Q234.23021 135.73438 234.68333 136.15625Q235.15208 136.5625 235.93333 136.54688L235.93333 133.6875ZM240.18333 129.0L230.16771 129.0L230.16771 127.078125L240.18333 127.078125L240.18333 129.0ZM237.87083 120.796875L238.19896 118.875Q239.24583 119.25 239.80833 120.046875Q240.35521 120.84375 240.35521 122.03125Q240.35521 123.921875 239.10521 124.84375Q238.12083 125.5625 236.60521 125.5625Q234.80833 125.5625 233.79271 124.625Q232.76146 123.671875 232.76146 122.21875Q232.76146 120.609375 233.83958 119.671875Q234.90208 118.734375 237.10521 118.78125L237.10521 123.59375Q237.96458 123.5625 238.44896 123.125Q238.91771 122.671875 238.91771 122.015625Q238.91771 121.5625 238.66771 121.265625Q238.41771 120.953125 237.87083 120.796875ZM235.93333 120.6875Q235.08958 120.703125 234.66771 121.109375Q234.23021 121.515625 234.23021 122.109375Q234.23021 122.734375 234.68333 123.15625Q235.15208 123.5625 235.93333 123.546875L235.93333 120.6875ZM240.18333 114.15625L240.18333 116.078125L232.91771 116.078125L232.91771 114.296875L233.94896 114.296875Q233.23021 113.828125 232.99583 113.46875Q232.76146 113.109375 232.76146 112.640625Q232.76146 111.984375 233.12083 111.375L234.79271 111.96875Q234.48021 112.453125 234.48021 112.875Q234.48021 113.28125 234.71458 113.5625Q234.93333 113.828125 235.51146 114.0Q236.08958 114.15625 237.93333 114.15625L240.18333 114.15625ZM235.13646 108.5625L234.82396 110.296875Q233.77708 110.015625 233.27708 109.296875Q232.76146 108.578125 232.76146 107.15625Q232.76146 105.875 233.07396 105.25Q233.37083 104.609375 233.83958 104.359375Q234.30833 104.109375 235.55833 104.109375L237.79271 104.125Q238.76146 104.125 239.21458 104.03125Q239.66771 103.9375 240.18333 103.6875L240.18333 105.578125Q239.99583 105.65625 239.62083 105.765625Q239.44896 105.8125 239.38646 105.84375Q239.87083 106.328125 240.12083 106.890625Q240.35521 107.453125 240.35521 108.09375Q240.35521 109.203125 239.74583 109.859375Q239.13646 110.5 238.19896 110.5Q237.58958 110.5 237.10521 110.203125Q236.62083 109.90625 236.37083 109.390625Q236.10521 108.859375 235.91771 107.859375Q235.66771 106.515625 235.44896 105.984375L235.26146 105.984375Q234.69896 105.984375 234.46458 106.265625Q234.23021 106.53125 234.23021 107.296875Q234.23021 107.8125 234.43333 108.09375Q234.63646 108.375 235.13646 108.5625ZM236.69896 105.984375Q236.82396 106.359375 236.99583 107.15625Q237.16771 107.953125 237.32396 108.203125Q237.58958 108.578125 237.99583 108.578125Q238.40208 108.578125 238.69896 108.28125Q238.99583 107.984375 238.99583 107.515625Q238.99583 107.0 238.65208 106.515625Q238.38646 106.171875 238.01146 106.0625Q237.77708 105.984375 237.07396 105.984375L236.69896 105.984375ZM232.91771 98.671875L234.44896 98.671875L234.44896 99.984375L237.38646 99.984375Q238.26146 99.984375 238.41771 99.953125Q238.55833 99.90625 238.66771 99.78125Q238.76146 99.640625 238.76146 99.4375Q238.76146 99.171875 238.57396 98.671875L240.05833 98.515625Q240.35521 99.171875 240.35521 100.03125Q240.35521 100.546875 240.18333 100.96875Q239.99583 101.375 239.73021 101.578125Q239.44896 101.765625 238.98021 101.84375Q238.63646 101.90625 237.62083 101.90625L234.44896 101.90625L234.44896 102.78125L232.91771 102.78125L232.91771 101.90625L231.48021 101.90625L230.35521 99.984375L232.91771 99.984375L232.91771 98.671875ZM231.93333 97.0L230.16771 97.0L230.16771 95.078125L231.93333 95.078125L231.93333 97.0ZM240.18333 97.0L232.91771 97.0L232.91771 95.078125L240.18333 95.078125L240.18333 97.0ZM240.18333 86.390625L240.18333 88.3125L236.48021 88.3125Q235.30833 88.3125 234.96458 88.4375Q234.60521 88.5625 234.41771 88.84375Q234.23021 89.109375 234.23021 89.5Q234.23021 90.0 234.51146 90.40625Q234.77708 90.796875 235.23021 90.953125Q235.68333 91.09375 236.90208 91.09375L240.18333 91.09375L240.18333 93.015625L232.91771 93.015625L232.91771 91.21875L233.99583 91.21875Q232.76146 90.28125 232.76146 88.828125Q232.76146 88.203125 232.99583 87.671875Q233.21458 87.140625 233.57396 86.875Q233.93333 86.609375 234.38646 86.5Q234.82396 86.390625 235.66771 86.390625L240.18333 86.390625ZM240.66771 84.171875L240.93333 81.984375Q241.30833 81.921875 241.44896 81.71875Q241.66771 81.453125 241.66771 80.859375Q241.66771 80.109375 241.43333 79.734375Q241.27708 79.484375 240.94896 79.359375Q240.71458 79.265625 240.07396 79.265625L239.01146 79.265625Q240.18333 80.125 240.18333 81.4375Q240.18333 82.90625 238.94896 83.75Q237.96458 84.421875 236.51146 84.421875Q234.68333 84.421875 233.73021 83.546875Q232.76146 82.671875 232.76146 81.359375Q232.76146 80.015625 233.94896 79.140625L232.91771 79.140625L232.91771 77.34375L239.43333 77.34375Q240.73021 77.34375 241.35521 77.5625Q241.99583 77.765625 242.35521 78.15625Q242.71458 78.53125 242.91771 79.171875Q243.13646 79.8125 243.13646 80.78125Q243.13646 82.640625 242.49583 83.40625Q241.87083 84.171875 240.90208 84.171875Q240.79271 84.171875 240.66771 84.171875ZM236.40208 82.453125Q237.55833 82.453125 238.10521 82.015625Q238.63646 81.5625 238.63646 80.90625Q238.63646 80.203125 238.08958 79.71875Q237.52708 79.234375 236.44896 79.234375Q235.32396 79.234375 234.77708 79.703125Q234.23021 80.15625 234.23021 80.875Q234.23021 81.5625 234.77708 82.015625Q235.30833 82.453125 236.40208 82.453125Z" fill-rule="nonzero"/><path fill="#cdd6f4" d="M232.91771 277.67188L234.44896 277.67188L234.44896 278.98438L237.38646 278.98438Q238.26146 278.98438 238.41771 278.95312Q238.55833 278.90625 238.66771 278.78125Q238.76146 278.64062 238.76146 278.4375Q238.76146 278.17188 238.57396 277.67188L240.05833 277.51562Q240.35521 278.17188 240.35521 279.03125Q240.35521 279.54688 240.18333 279.96875Q239.99583 280.375 239.73021 280.57812Q239.44896 280.76562 238.98021 280.84375Q238.63646 280.90625 237.62083 280.90625L234.44896 280.90625L234.44896 281.78125L232.91771 281.78125L232.91771 280.90625L231.48021 280.90625L230.35521 278.98438L232.91771 278.98438L232.91771 277.67188ZM230.16771 274.07812L233.83958 274.07812Q232.76146 273.15625 232.76146 271.85938Q232.76146 271.20312 233.01146 270.67188Q233.24583 270.125 233.63646 269.85938Q234.01146 269.59375 234.48021 269.5Q234.94896 269.39062 235.91771 269.39062L240.18333 269.39062L240.18333 271.3125L236.35521 271.3125Q235.19896 271.3125 234.90208 271.42188Q234.58958 271.53125 234.41771 271.8125Q234.23021 272.07812 234.23021 272.5Q234.23021 272.98438 234.46458 273.35938Q234.69896 273.73438 235.16771 273.90625Q235.63646 274.07812 236.54271 274.07812L240.18333 274.07812L240.18333 276.0L230.16771 276.0L230.16771 274.07812ZM237.87083 262.79688L238.19896 260.875Q239.24583 261.25 239.80833 262.04688Q240.35521 262.84375 240.35521 264.03125Q240.35521 265.92188 239.10521 266.84375Q238.12083 267.5625 236.60521 267.5625Q234.80833 267.5625 233.79271 266.625Q232.76146 265.67188 232.76146 264.21875Q232.76146 262.60938 233.83958 261.67188Q234.90208 260.73438 237.10521 260.78125L237.10521 265.59375Q237.96458 265.5625 238.44896 265.125Q238.91771 264.67188 238.91771 264.01562Q238.91771 263.5625 238.66771 263.26562Q238.41771 262.95312 237.87083 262.79688ZM235.93333 262.6875Q235.08958 262.70312 234.66771 263.10938Q234.23021 263.51562 234.23021 264.10938Q234.23021 264.73438 234.68333 265.15625Q235.15208 265.5625 235.93333 265.54688L235.93333 262.6875ZM236.44896 254.4375Q235.49583 254.4375 234.60521 253.96875Q233.69896 253.5 233.23021 252.64062Q232.76146 251.76562 232.76146 250.70312Q232.76146 249.04688 233.83958 248.0Q234.90208 246.95312 236.52708 246.95312Q238.18333 246.95312 239.27708 248.01562Q240.35521 249.07812 240.35521 250.6875Q240.35521 251.6875 239.90208 252.59375Q239.44896 253.5 238.57396 253.96875Q237.69896 254.4375 236.44896 254.4375ZM236.55833 252.46875Q237.63646 252.46875 238.21458 251.95312Q238.77708 251.4375 238.77708 250.6875Q238.77708 249.9375 238.21458 249.4375Q237.63646 248.92188 236.54271 248.92188Q235.48021 248.92188 234.90208 249.4375Q234.32396 249.9375 234.32396 250.6875Q234.32396 251.4375 234.90208 251.95312Q235.48021 252.46875 236.55833 252.46875ZM240.18333 245.07812L230.16771 245.07812L230.16771 243.15625L233.77708 243.15625Q232.76146 242.26562 232.76146 241.04688Q232.76146 239.71875 233.73021 238.85938Q234.68333 237.98438 236.48021 237.98438Q238.33958 237.98438 239.35521 238.875Q240.35521 239.76562 240.35521 241.01562Q240.35521 241.64062 240.04271 242.25Q239.73021 242.85938 239.12083 243.29688L240.18333 243.29688L240.18333 245.07812ZM236.40208 243.17188Q237.52708 243.17188 238.05833 242.8125Q238.82396 242.3125 238.82396 241.48438Q238.82396 240.85938 238.29271 240.40625Q237.74583 239.95312 236.57396 239.95312Q235.32396 239.95312 234.77708 240.40625Q234.23021 240.85938 234.23021 241.5625Q234.23021 242.25 234.77708 242.71875Q235.30833 243.17188 236.40208 243.17188ZM231.93333 236.03125L230.16771 236.03125L230.16771 234.10938L231.93333 234.10938L231.93333 236.03125ZM232.91771 234.10938L239.96458 234.10938Q241.33958 234.10938 241.90208 234.29688Q242.48021 234.48438 242.80833 235.0Q243.13646 235.51562 243.13646 236.3125Q243.13646 236.59375 243.07396 236.9375Q243.02708 237.26562 242.91771 237.64062L241.27708 237.3125Q241.30833 237.17188 241.32396 237.04688Q241.33958 236.9375 241.33958 236.82812Q241.33958 236.53125 241.21458 236.34375Q241.08958 236.15625 240.90208 236.09375Q240.73021 236.03125 239.85521 236.03125L232.91771 236.03125L232.91771 234.10938ZM237.87083 227.79688L238.19896 225.875Q239.24583 226.25 239.80833 227.04688Q240.35521 227.84375 240.35521 229.03125Q240.35521 230.92188 239.10521 231.84375Q238.12083 232.5625 236.60521 232.5625Q234.80833 232.5625 233.79271 231.625Q232.76146 230.67188 232.76146 229.21875Q232.76146 227.60938 233.83958 226.67188Q234.90208 225.73438 237.10521 225.78125L237.10521 230.59375Q237.96458 230.5625 238.44896 230.125Q238.91771 229.67188 238.91771 229.01562Q238.91771 228.5625 238.66771 228.26562Q238.41771 227.95312 237.87083 227.79688ZM235.93333 227.6875Q235.08958 227.70312 234.66771 228.10938Q234.23021 228.51562 234.23021 229.10938Q234.23021 229.73438 234.68333 230.15625Q235.15208 230.5625 235.93333 230.54688L235.93333 227.6875ZM235.07396 216.67188L235.41771 218.5625Q234.83958 218.65625 234.55833 219.0Q234.27708 219.32812 234.27708 219.875Q234.27708 220.59375 234.77708 221.01562Q235.26146 221.4375 236.41771 221.4375Q237.71458 221.4375 238.24583 221.01562Q238.77708 220.57812 238.77708 219.84375Q238.77708 219.29688 238.46458 218.95312Q238.15208 218.59375 237.40208 218.45312L237.71458 216.5625Q239.02708 216.85938 239.69896 217.70312Q240.35521 218.53125 240.35521 219.9375Q240.35521 221.53125 239.35521 222.48438Q238.33958 223.42188 236.55833 223.42188Q234.76146 223.42188 233.76146 222.46875Q232.76146 221.51562 232.76146 219.89062Q232.76146 218.57812 233.33958 217.79688Q233.90208 217.0 235.07396 216.67188ZM232.91771 211.67188L234.44896 211.67188L234.44896 212.98438L237.38646 212.98438Q238.26146 212.98438 238.41771 212.95312Q238.55833 212.90625 238.66771 212.78125Q238.76146 212.64062 238.76146 212.4375Q238.76146 212.17188 238.57396 211.67188L240.05833 211.51562Q240.35521 212.17188 240.35521 213.03125Q240.35521 213.54688 240.18333 213.96875Q239.99583 214.375 239.73021 214.57812Q239.44896 214.76562 238.98021 214.84375Q238.63646 214.90625 237.62083 214.90625L234.44896 214.90625L234.44896 215.78125L232.91771 215.78125L232.91771 214.90625L231.48021 214.90625L230.35521 212.98438L232.91771 212.98438L232.91771 211.67188ZM238.10521 206.67188L237.82396 204.75Q238.37083 204.625 238.66771 204.25Q238.96458 203.875 238.96458 203.1875Q238.96458 202.45312 238.68333 202.07812Q238.49583 201.8125 238.16771 201.8125Q237.94896 201.8125 237.80833 201.95312Q237.66771 202.09375 237.55833 202.59375Q237.04271 204.92188 236.62083 205.54688Q236.02708 206.40625 234.98021 206.40625Q234.04271 206.40625 233.40208 205.67188Q232.76146 204.92188 232.76146 203.34375Q232.76146 201.85938 233.24583 201.14062Q233.73021 200.40625 234.68333 200.14062L235.01146 201.95312Q234.58958 202.0625 234.37083 202.39062Q234.13646 202.71875 234.13646 203.3125Q234.13646 204.07812 234.35521 204.40625Q234.49583 204.625 234.74583 204.625Q234.94896 204.625 235.08958 204.42188Q235.27708 204.17188 235.63646 202.64062Q235.98021 201.09375 236.48021 200.48438Q236.99583 199.89062 237.91771 199.89062Q238.91771 199.89062 239.63646 200.73438Q240.35521 201.5625 240.35521 203.1875Q240.35521 204.67188 239.74583 205.54688Q239.13646 206.40625 238.10521 206.67188ZM232.91771 194.67188L234.44896 194.67188L234.44896 195.98438L237.38646 195.98438Q238.26146 195.98438 238.41771 195.95312Q238.55833 195.90625 238.66771 195.78125Q238.76146 195.64062 238.76146 195.4375Q238.76146 195.17188 238.57396 194.67188L240.05833 194.51562Q240.35521 195.17188 240.35521 196.03125Q240.35521 196.54688 240.18333 196.96875Q239.99583 197.375 239.73021 197.57812Q239.44896 197.76562 238.98021 197.84375Q238.63646 197.90625 237.62083 197.90625L234.44896 197.90625L234.44896 198.78125L232.91771 198.78125L232.91771 197.90625L231.48021 197.90625L230.35521 195.98438L232.91771 195.98438L232.91771 194.67188ZM235.13646 191.5625L234.82396 193.29688Q233.77708 193.01562 233.27708 192.29688Q232.76146 191.57812 232.76146 190.15625Q232.76146 188.875 233.07396 188.25Q233.37083 187.60938 233.83958 187.35938Q234.30833 187.10938 235.55833 187.10938L237.79271 187.125Q238.76146 187.125 239.21458 187.03125Q239.66771 186.9375 240.18333 186.6875L240.18333 188.57812Q239.99583 188.65625 239.62083 188.76562Q239.44896 188.8125 239.38646 188.84375Q239.87083 189.32812 240.12083 189.89062Q240.35521 190.45312 240.35521 191.09375Q240.35521 192.20312 239.74583 192.85938Q239.13646 193.5 238.19896 193.5Q237.58958 193.5 237.10521 193.20312Q236.62083 192.90625 236.37083 192.39062Q236.10521 191.85938 235.91771 190.85938Q235.66771 189.51562 235.44896 188.98438L235.26146 188.98438Q234.69896 188.98438 234.46458 189.26562Q234.23021 189.53125 234.23021 190.29688Q234.23021 190.8125 234.43333 191.09375Q234.63646 191.375 235.13646 191.5625ZM236.69896 188.98438Q236.82396 189.35938 236.99583 190.15625Q237.16771 190.95312 237.32396 191.20312Q237.58958 191.57812 237.99583 191.57812Q238.40208 191.57812 238.69896 191.28125Q238.99583 190.98438 238.99583 190.51562Q238.99583 190.0 238.65208 189.51562Q238.38646 189.17188 238.01146 189.0625Q237.77708 188.98438 237.07396 188.98438L236.69896 188.98438ZM240.18333 183.15625L240.18333 185.07812L232.91771 185.07812L232.91771 183.29688L233.94896 183.29688Q233.23021 182.82812 232.99583 182.46875Q232.76146 182.10938 232.76146 181.64062Q232.76146 180.98438 233.12083 180.375L234.79271 180.96875Q234.48021 181.45312 234.48021 181.875Q234.48021 182.28125 234.71458 182.5625Q234.93333 182.82812 235.51146 183.0Q236.08958 183.15625 237.93333 183.15625L240.18333 183.15625ZM232.91771 175.67188L234.44896 175.67188L234.44896 176.98438L237.38646 176.98438Q238.26146 176.98438 238.41771 176.95312Q238.55833 176.90625 238.66771 176.78125Q238.76146 176.64062 238.76146 176.4375Q238.76146 176.17188 238.57396 175.67188L240.05833 175.51562Q240.35521 176.17188 240.35521 177.03125Q240.35521 177.54688 240.18333 177.96875Q239.99583 178.375 239.73021 178.57812Q239.44896 178.76562 238.98021 178.84375Q238.63646 178.90625 237.62083 178.90625L234.44896 178.90625L234.44896 179.78125L232.91771 179.78125L232.91771 178.90625L231.48021 178.90625L230.35521 176.98438L232.91771 176.98438L232.91771 175.67188ZM238.10521 174.67188L237.82396 172.75Q238.37083 172.625 238.66771 172.25Q238.96458 171.875 238.96458 171.1875Q238.96458 170.45312 238.68333 170.07812Q238.49583 169.8125 238.16771 169.8125Q237.94896 169.8125 237.80833 169.95312Q237.66771 170.09375 237.55833 170.59375Q237.04271 172.92188 236.62083 173.54688Q236.02708 174.40625 234.98021 174.40625Q234.04271 174.40625 233.40208 173.67188Q232.76146 172.92188 232.76146 171.34375Q232.76146 169.85938 233.24583 169.14062Q233.73021 168.40625 234.68333 168.14062L235.01146 169.95312Q234.58958 170.0625 234.37083 170.39062Q234.13646 170.71875 234.13646 171.3125Q234.13646 172.07812 234.35521 172.40625Q234.49583 172.625 234.74583 172.625Q234.94896 172.625 235.08958 172.42188Q235.27708 172.17188 235.63646 170.64062Q235.98021 169.09375 236.48021 168.48438Q236.99583 167.89062 237.91771 167.89062Q238.91771 167.89062 239.63646 168.73438Q240.35521 169.5625 240.35521 171.1875Q240.35521 172.67188 239.74583 173.54688Q239.13646 174.40625 238.10521 174.67188ZM235.13646 160.5625L234.82396 162.29688Q233.77708 162.01562 233.27708 161.29688Q232.76146 160.57812 232.76146 159.15625Q232.76146 157.875 233.07396 157.25Q233.37083 156.60938 233.83958 156.35938Q234.30833 156.10938 235.55833 156.10938L237.79271 156.125Q238.76146 156.125 239.21458 156.03125Q239.66771 155.9375 240.18333 155.6875L240.18333 157.57812Q239.99583 157.65625 239.62083 157.76562Q239.44896 157.8125 239.38646 157.84375Q239.87083 158.32812 240.12083 158.89062Q240.35521 159.45312 240.35521 160.09375Q240.35521 161.20312 239.74583 161.85938Q239.13646 162.5 238.19896 162.5Q237.58958 162.5 237.10521 162.20312Q236.62083 161.90625 236.37083 161.39062Q236.10521 160.85938 235.91771 159.85938Q235.66771 158.51562 235.44896 157.98438L235.26146 157.98438Q234.69896 157.98438 234.46458 158.26562Q234.23021 158.53125 234.23021 159.29688Q234.23021 159.8125 234.43333 160.09375Q234.63646 160.375 235.13646 160.5625ZM236.69896 157.98438Q236.82396 158.35938 236.99583 159.15625Q237.16771 159.95312 237.32396 160.20312Q237.58958 160.57812 237.99583 160.57812Q238.40208 160.57812 238.69896 160.28125Q238.99583 159.98438 238.99583 159.51562Q238.99583 159.0 238.65208 158.51562Q238.38646 158.17188 238.01146 158.0625Q237.77708 157.98438 237.07396 157.98438L236.69896 157.98438ZM235.07396 147.67188L235.41771 149.5625Q234.83958 149.65625 234.55833 150.0Q234.27708 150.32812 234.27708 150.875Q234.27708 151.59375 234.77708 152.01562Q235.26146 152.4375 236.41771 152.4375Q237.71458 152.4375 238.24583 152.01562Q238.77708 151.57812 238.77708 150.84375Q238.77708 150.29688 238.46458 149.95312Q238.15208 149.59375 237.40208 149.45312L237.71458 147.5625Q239.02708 147.85938 239.69896 148.70312Q240.35521 149.53125 240.35521 150.9375Q240.35521 152.53125 239.35521 153.48438Q238.33958 154.42188 236.55833 154.42188Q234.76146 154.42188 233.76146 153.46875Q232.76146 152.51562 232.76146 150.89062Q232.76146 149.57812 233.33958 148.79688Q233.90208 148.0 235.07396 147.67188ZM235.07396 139.67188L235.41771 141.5625Q234.83958 141.65625 234.55833 142.0Q234.27708 142.32812 234.27708 142.875Q234.27708 143.59375 234.77708 144.01562Q235.26146 144.4375 236.41771 144.4375Q237.71458 144.4375 238.24583 144.01562Q238.77708 143.57812 238.77708 142.84375Q238.77708 142.29688 238.46458 141.95312Q238.15208 141.59375 237.40208 141.45312L237.71458 139.5625Q239.02708 139.85938 239.69896 140.70312Q240.35521 141.53125 240.35521 142.9375Q240.35521 144.53125 239.35521 145.48438Q238.33958 146.42188 236.55833 146.42188Q234.76146 146.42188 233.76146 145.46875Q232.76146 144.51562 232.76146 142.89062Q232.76146 141.57812 233.33958 140.79688Q233.90208 140.0 235.07396 139.67188ZM237.87083 133.79688L238.19896 131.875Q239.24583 132.25 239.80833 133.04688Q240.35521 133.84375 240.35521 135.03125Q240.35521 136.92188 239.10521 137.84375Q238.12083 138.5625 236.60521 138.5625Q234.80833 138.5625 233.79271 137.625Q232.76146 136.67188 232.76146 135.21875Q232.76146 133.60938 233.83958 132.67188Q234.90208 131.73438 237.10521 131.78125L237.10521 136.59375Q237.96458 136.5625 238.44896 136.125Q238.91771 135.67188 238.91771 135.01562Q238.91771 134.5625 238.66771 134.26562Q238.41771 133.95312 237.87083 133.79688ZM235.93333 133.6875Q235.08958 133.70312 234.66771 134.10938Q234.23021 134.51562 234.23021 135.10938Q234.23021 135.73438 234.68333 136.15625Q235.15208 136.5625 235.93333 136.54688L235.93333 133.6875ZM240.18333 129.0L230.16771 129.0L230.16771 127.078125L240.18333 127.078125L240.18333 129.0ZM237.87083 120.796875L238.19896 118.875Q239.24583 119.25 239.80833 120.046875Q240.35521 120.84375 240.35521 122.03125Q240.35521 123.921875 239.10521 124.84375Q238.12083 125.5625 236.60521 125.5625Q234.80833 125.5625 233.79271 124.625Q232.76146 123.671875 232.76146 122.21875Q232.76146 120.609375 233.83958 119.671875Q234.90208 118.734375 237.10521 118.78125L237.10521 123.59375Q237.96458 123.5625 238.44896 123.125Q238.91771 122.671875 238.91771 122.015625Q238.91771 121.5625 238.66771 121.265625Q238.41771 120.953125 237.87083 120.796875ZM235.93333 120.6875Q235.08958 120.703125 234.66771 121.109375Q234.23021 121.515625 234.23021 122.109375Q234.23021 122.734375 234.68333 123.15625Q235.15208 123.5625 235.93333 123.546875L235.93333 120.6875ZM240.18333 114.15625L240.18333 116.078125L232.91771 116.078125L232.91771 114.296875L233.94896 114.296875Q233.23021 113.828125 232.99583 113.46875Q232.76146 113.109375 232.76146 112.640625Q232.76146 111.984375 233.12083 111.375L234.79271 111.96875Q234.48021 112.453125 234.48021 112.875Q234.48021 113.28125 234.71458 113.5625Q234.93333 113.828125 235.51146 114.0Q236.08958 114.15625 237.93333 114.15625L240.18333 114.15625ZM235.13646 108.5625L234.82396 110.296875Q233.77708 110.015625 233.27708 109.296875Q232.76146 108.578125 232.76146 107.15625Q232.76146 105.875 233.07396 105.25Q233.37083 104.609375 233.83958 104.359375Q234.30833 104.109375 235.55833 104.109375L237.79271 104.125Q238.76146 104.125 239.21458 104.03125Q239.66771 103.9375 240.18333 103.6875L240.18333 105.578125Q239.99583 105.65625 239.62083 105.765625Q239.44896 105.8125 239.38646 105.84375Q239.87083 106.328125 240.12083 106.890625Q240.35521 107.453125 240.35521 108.09375Q240.35521 109.203125 239.74583 109.859375Q239.13646 110.5 238.19896 110.5Q237.58958 110.5 237.10521 110.203125Q236.62083 109.90625 236.37083 109.390625Q236.10521 108.859375 235.91771 107.859375Q235.66771 106.515625 235.44896 105.984375L235.26146 105.984375Q234.69896 105.984375 234.46458 106.265625Q234.23021 106.53125 234.23021 107.296875Q234.23021 107.8125 234.43333 108.09375Q234.63646 108.375 235.13646 108.5625ZM236.69896 105.984375Q236.82396 106.359375 236.99583 107.15625Q237.16771 107.953125 237.32396 108.203125Q237.58958 108.578125 237.99583 108.578125Q238.40208 108.578125 238.69896 108.28125Q238.99583 107.984375 238.99583 107.515625Q238.99583 107.0 238.65208 106.515625Q238.38646 106.171875 238.01146 106.0625Q237.77708 105.984375 237.07396 105.984375L236.69896 105.984375ZM232.91771 98.671875L234.44896 98.671875L234.44896 99.984375L237.38646 99.984375Q238.26146 99.984375 238.41771 99.953125Q238.55833 99.90625 238.66771 99.78125Q238.76146 99.640625 238.76146 99.4375Q238.76146 99.171875 238.57396 98.671875L240.05833 98.515625Q240.35521 99.171875 240.35521 100.03125Q240.35521 100.546875 240.18333 100.96875Q239.99583 101.375 239.73021 101.578125Q239.44896 101.765625 238.98021 101.84375Q238.63646 101.90625 237.62083 101.90625L234.44896 101.90625L234.44896 102.78125L232.91771 102.78125L232.91771 101.90625L231.48021 101.90625L230.35521 99.984375L232.91771 99.984375L232.91771 98.671875ZM231.93333 97.0L230.16771 97.0L230.16771 95.078125L231.93333 95.078125L231.93333 97.0ZM240.18333 97.0L232.91771 97.0L232.91771 95.078125L240.18333 95.078125L240.18333 97.0ZM240.18333 86.390625L240.18333 88.3125L236.48021 88.3125Q235.30833 88.3125 234.96458 88.4375Q234.60521 88.5625 234.41771 88.84375Q234.23021 89.109375 234.23021 89.5Q234.23021 90.0 234.51146 90.40625Q234.77708 90.796875 235.23021 90.953125Q235.68333 91.09375 236.90208 91.09375L240.18333 91.09375L240.18333 93.015625L232.91771 93.015625L232.91771 91.21875L233.99583 91.21875Q232.76146 90.28125 232.76146 88.828125Q232.76146 88.203125 232.99583 87.671875Q233.21458 87.140625 233.57396 86.875Q233.93333 86.609375 234.38646 86.5Q234.82396 86.390625 235.66771 86.390625L240.18333 86.390625ZM240.66771 84.171875L240.93333 81.984375Q241.30833 81.921875 241.44896 81.71875Q241.66771 81.453125 241.66771 80.859375Q241.66771 80.109375 241.43333 79.734375Q241.27708 79.484375 240.94896 79.359375Q240.71458 79.265625 240.07396 79.265625L239.01146 79.265625Q240.18333 80.125 240.18333 81.4375Q240.18333 82.90625 238.94896 83.75Q237.96458 84.421875 236.51146 84.421875Q234.68333 84.421875 233.73021 83.546875Q232.76146 82.671875 232.76146 81.359375Q232.76146 80.015625 233.94896 79.140625L232.91771 79.140625L232.91771 77.34375L239.43333 77.34375Q240.73021 77.34375 241.35521 77.5625Q241.99583 77.765625 242.35521 78.15625Q242.71458 78.53125 242.91771 79.171875Q243.13646 79.8125 243.13646 80.78125Q243.13646 82.640625 242.49583 83.40625Q241.87083 84.171875 240.90208 84.171875Q240.79271 84.171875 240.66771 84.171875ZM236.40208 82.453125Q237.55833 82.453125 238.10521 82.015625Q238.63646 81.5625 238.63646 80.90625Q238.63646 80.203125 238.08958 79.71875Q237.52708 79.234375 236.44896 79.234375Q235.32396 79.234375 234.77708 79.703125Q234.23021 80.15625 234.23021 80.875Q234.23021 81.5625 234.77708 82.015625Q235.30833 82.453125 236.40208 82.453125Z" fill-rule="nonzero"/><path fill="#a6adc8" d="M33.05 332.21564Q33.05 330.6844 33.3625 329.7625Q33.675 328.825 34.284374 328.325Q34.909374 327.825 35.846874 327.825Q36.534374 327.825 37.05 328.10626Q37.58125 328.3875 37.925 328.91876Q38.26875 329.4344 38.45625 330.1844Q38.64375 330.9344 38.64375 332.21564Q38.64375 333.73126 38.33125 334.65314Q38.034374 335.575 37.409374 336.09064Q36.8 336.59064 35.846874 336.59064Q34.6125 336.59064 33.89375 335.7Q33.05 334.6375 33.05 332.21564ZM34.128124 332.21564Q34.128124 334.325 34.628124 335.02814Q35.128124 335.73126 35.846874 335.73126Q36.58125 335.73126 37.065624 335.02814Q37.565624 334.325 37.565624 332.21564Q37.565624 330.09064 37.065624 329.40314Q36.58125 328.7 35.83125 328.7Q35.1125 328.7 34.675 329.3094Q34.128124 330.09064 34.128124 332.21564Z" fill-rule="nonzero"/><path fill="#a6adc8" d="M37.01875 234.15L35.971874 234.15L35.971874 227.43124Q35.58125 227.79062 34.95625 228.16562Q34.346874 228.525 33.8625 228.69687L33.8625 227.68124Q34.7375 227.25937 35.39375 226.68124Q36.065624 226.0875 36.346874 225.525L37.01875 225.525L37.01875 234.15Z" fill-rule="nonzero"/><path fill="#a6adc8" d="M38.596874 130.83438L38.596874 131.85L32.909374 131.85Q32.909374 131.475 33.034374 131.11563Q33.253124 130.5375 33.721874 129.975Q34.20625 129.4125 35.1125 128.67813Q36.51875 127.52188 37.003124 126.850006Q37.503124 126.17813 37.503124 125.58438Q37.503124 124.95938 37.05 124.537506Q36.596874 124.100006 35.878124 124.100006Q35.1125 124.100006 34.659374 124.55313Q34.20625 125.006256 34.190624 125.818756L33.1125 125.70938Q33.221874 124.49063 33.940624 123.86563Q34.675 123.225006 35.909374 123.225006Q37.14375 123.225006 37.8625 123.912506Q38.58125 124.600006 38.58125 125.61563Q38.58125 126.131256 38.3625 126.631256Q38.159374 127.11563 37.659374 127.67813Q37.175 128.225 36.05 129.17813Q35.096874 129.975 34.815624 130.27188Q34.55 130.55313 34.378124 130.83438L38.596874 130.83438Z" fill-rule="nonzero"/><path fill="#a6adc8" d="M33.05 27.284374L34.1125 27.14375Q34.284374 28.034374 34.721874 28.440624Q35.159374 28.83125 35.784374 28.83125Q36.534374 28.83125 37.05 28.315624Q37.565624 27.8 37.565624 27.034374Q37.565624 26.315624 37.08125 25.846874Q36.6125 25.3625 35.878124 25.3625Q35.58125 25.3625 35.128124 25.4875L35.253124 24.55Q35.3625 24.565624 35.425 24.565624Q36.096874 24.565624 36.628124 24.221874Q37.175 23.8625 37.175 23.128124Q37.175 22.55 36.784374 22.175Q36.39375 21.784374 35.76875 21.784374Q35.159374 21.784374 34.7375 22.175Q34.33125 22.565624 34.221874 23.33125L33.159374 23.14375Q33.346874 22.096874 34.034374 21.51875Q34.721874 20.925 35.7375 20.925Q36.440624 20.925 37.034374 21.2375Q37.628124 21.534374 37.940624 22.05Q38.253124 22.565624 38.253124 23.159374Q38.253124 23.70625 37.95625 24.175Q37.659374 24.628124 37.08125 24.89375Q37.83125 25.065624 38.253124 25.628124Q38.675 26.175 38.675 27.01875Q38.675 28.14375 37.846874 28.925Q37.034374 29.70625 35.784374 29.70625Q34.659374 29.70625 33.909374 29.034374Q33.159374 28.346874 33.05 27.284374Z" fill-rule="nonzero"/><path fill="#a6adc8" d="M42.55 345.21564Q42.55 343.6844 42.8625 342.7625Q43.175 341.825 43.784374 341.325Q44.409374 340.825 45.346874 340.825Q46.034374 340.825 46.55 341.10626Q47.08125 341.3875 47.425 341.91876Q47.76875 342.4344 47.95625 343.1844Q48.14375 343.9344 48.14375 345.21564Q48.14375 346.73126 47.83125 347.65314Q47.534374 348.575 46.909374 349.09064Q46.3 349.59064 45.346874 349.59064Q44.1125 349.59064 43.39375 348.7Q42.55 347.6375 42.55 345.21564ZM43.628124 345.21564Q43.628124 347.325 44.128124 348.02814Q44.628124 348.73126 45.346874 348.73126Q46.08125 348.73126 46.565624 348.02814Q47.065624 347.325 47.065624 345.21564Q47.065624 343.09064 46.565624 342.40314Q46.08125 341.7 45.33125 341.7Q44.6125 341.7 44.175 342.3094Q43.628124 343.09064 43.628124 345.21564Z" fill-rule="nonzero"/><path fill="#a6adc8" d="M226.73021 348.4344L226.73021 349.45L221.04271 349.45Q221.04271 349.075 221.16771 348.71564Q221.38646 348.1375 221.85521 347.575Q222.33958 347.0125 223.24583 346.27814Q224.65208 345.1219 225.13646 344.45Q225.63646 343.77814 225.63646 343.1844Q225.63646 342.5594 225.18333 342.1375Q224.73021 341.7 224.01146 341.7Q223.24583 341.7 222.79271 342.15314Q222.33958 342.60626 222.32396 343.41876L221.24583 343.3094Q221.35521 342.09064 222.07396 341.46564Q222.80833 340.825 224.04271 340.825Q225.27708 340.825 225.99583 341.5125Q226.71458 342.2 226.71458 343.21564Q226.71458 343.73126 226.49583 344.23126Q226.29271 344.71564 225.79271 345.27814Q225.30833 345.825 224.18333 346.77814Q223.23021 347.575 222.94896 347.8719Q222.68333 348.15314 222.51146 348.4344L226.73021 348.4344Z" fill-rule="nonzero"/><path fill="#a6adc8" d="M403.19168 349.45L403.19168 347.3875L399.47293 347.3875L399.47293 346.41876L403.3948 340.85626L404.25418 340.85626L404.25418 346.41876L405.41043 346.41876L405.41043 347.3875L404.25418 347.3875L404.25418 349.45L403.19168 349.45ZM403.19168 346.41876L403.19168 342.5594L400.50418 346.41876L403.19168 346.41876Z" fill-rule="nonzero"/><path fill="#a6adc8" d="M583.91876 342.96564L582.8719 343.04376Q582.73126 342.41876 582.48126 342.1375Q582.04376 341.6844 581.41876 341.6844Q580.91876 341.6844 580.52814 341.96564Q580.04376 342.34064 579.7469 343.04376Q579.46564 343.73126 579.45 345.0125Q579.825 344.4344 580.3719 344.15314Q580.9344 343.8719 581.54376 343.8719Q582.59064 343.8719 583.325 344.65314Q584.075 345.4344 584.075 346.65314Q584.075 347.46564 583.71564 348.16876Q583.3719 348.85626 582.7625 349.23126Q582.15314 349.59064 581.3875 349.59064Q580.0594 349.59064 579.23126 348.6219Q578.40314 347.65314 578.40314 345.4344Q578.40314 342.9344 579.325 341.8094Q580.1219 340.825 581.48126 340.825Q582.4969 340.825 583.1375 341.40314Q583.79376 341.96564 583.91876 342.96564ZM579.6219 346.66876Q579.6219 347.21564 579.84064 347.71564Q580.075 348.2 580.48126 348.46564Q580.90314 348.73126 581.3719 348.73126Q582.02814 348.73126 582.5125 348.2Q582.9969 347.65314 582.9969 346.73126Q582.9969 345.84064 582.5125 345.325Q582.04376 344.8094 581.325 344.8094Q580.60626 344.8094 580.10626 345.325Q579.6219 345.84064 579.6219 346.66876Z" fill-rule="nonzero"/></svg>